<?xml version="1.0" encoding="UTF-8" standalone="no"?>
<!-- Created with Inkscape (http://www.inkscape.org/) -->

<svg
   xmlns:dc="http://purl.org/dc/elements/1.1/"
   xmlns:cc="http://creativecommons.org/ns#"
   xmlns:rdf="http://www.w3.org/1999/02/22-rdf-syntax-ns#"
   xmlns:svg="http://www.w3.org/2000/svg"
   xmlns="http://www.w3.org/2000/svg"
   xmlns:sodipodi="http://sodipodi.sourceforge.net/DTD/sodipodi-0.dtd"
   xmlns:inkscape="http://www.inkscape.org/namespaces/inkscape"
   id="svg3336"
   version="1.1"
   inkscape:version="0.91 r13725"
   xml:space="preserve"
   width="518.112"
   height="199.33701"
   viewBox="0 0 518.112 199.337"
   sodipodi:docname="SearchAThing.Arduino.Utils.compareDPrint_RAM.svg"><metadata
     id="metadata3342"><rdf:RDF><cc:Work
         rdf:about=""><dc:format>image/svg+xml</dc:format><dc:type
           rdf:resource="http://purl.org/dc/dcmitype/StillImage" /><dc:title></dc:title></cc:Work></rdf:RDF></metadata><defs
     id="defs3340"><clipPath
       clipPathUnits="userSpaceOnUse"
       id="clipPath3448"><path
         d="m 72.12,430.32 413.64,0 0,158.64 -413.64,0 0,-158.64 z"
         id="path3450"
         inkscape:connector-curvature="0"
         style="clip-rule:evenodd" /></clipPath><clipPath
       clipPathUnits="userSpaceOnUse"
       id="clipPath3460"><path
         d="m 72.12,430.32 413.64,0 0,158.64 -413.64,0 0,-158.64 z"
         id="path3462"
         inkscape:connector-curvature="0"
         style="clip-rule:evenodd" /></clipPath><clipPath
       clipPathUnits="userSpaceOnUse"
       id="clipPath3472"><path
         d="m 72.12,430.32 413.64,0 0,158.64 -413.64,0 0,-158.64 z"
         id="path3474"
         inkscape:connector-curvature="0"
         style="clip-rule:evenodd" /></clipPath><clipPath
       clipPathUnits="userSpaceOnUse"
       id="clipPath3484"><path
         d="m 72.12,430.32 413.64,0 0,158.64 -413.64,0 0,-158.64 z"
         id="path3486"
         inkscape:connector-curvature="0"
         style="clip-rule:evenodd" /></clipPath><clipPath
       clipPathUnits="userSpaceOnUse"
       id="clipPath3496"><path
         d="m 72.12,430.32 413.64,0 0,158.64 -413.64,0 0,-158.64 z"
         id="path3498"
         inkscape:connector-curvature="0"
         style="clip-rule:evenodd" /></clipPath><clipPath
       clipPathUnits="userSpaceOnUse"
       id="clipPath3508"><path
         d="m 72.12,430.32 413.64,0 0,158.64 -413.64,0 0,-158.64 z"
         id="path3510"
         inkscape:connector-curvature="0"
         style="clip-rule:evenodd" /></clipPath><clipPath
       clipPathUnits="userSpaceOnUse"
       id="clipPath3520"><path
         d="m 72.12,430.32 413.64,0 0,158.64 -413.64,0 0,-158.64 z"
         id="path3522"
         inkscape:connector-curvature="0"
         style="clip-rule:evenodd" /></clipPath><clipPath
       clipPathUnits="userSpaceOnUse"
       id="clipPath3532"><path
         d="m 72.12,430.32 413.64,0 0,158.64 -413.64,0 0,-158.64 z"
         id="path3534"
         inkscape:connector-curvature="0"
         style="clip-rule:evenodd" /></clipPath><clipPath
       clipPathUnits="userSpaceOnUse"
       id="clipPath3544"><path
         d="m 72.12,430.32 413.64,0 0,158.64 -413.64,0 0,-158.64 z"
         id="path3546"
         inkscape:connector-curvature="0"
         style="clip-rule:evenodd" /></clipPath><clipPath
       clipPathUnits="userSpaceOnUse"
       id="clipPath3556"><path
         d="m 72.12,430.32 413.64,0 0,158.64 -413.64,0 0,-158.64 z"
         id="path3558"
         inkscape:connector-curvature="0"
         style="clip-rule:evenodd" /></clipPath><clipPath
       clipPathUnits="userSpaceOnUse"
       id="clipPath3568"><path
         d="m 72.12,430.32 413.64,0 0,158.64 -413.64,0 0,-158.64 z"
         id="path3570"
         inkscape:connector-curvature="0"
         style="clip-rule:evenodd" /></clipPath><clipPath
       clipPathUnits="userSpaceOnUse"
       id="clipPath3580"><path
         d="m 72.12,430.32 413.64,0 0,158.64 -413.64,0 0,-158.64 z"
         id="path3582"
         inkscape:connector-curvature="0"
         style="clip-rule:evenodd" /></clipPath><clipPath
       clipPathUnits="userSpaceOnUse"
       id="clipPath3592"><path
         d="m 72.12,430.32 413.64,0 0,158.64 -413.64,0 0,-158.64 z"
         id="path3594"
         inkscape:connector-curvature="0"
         style="clip-rule:evenodd" /></clipPath><clipPath
       clipPathUnits="userSpaceOnUse"
       id="clipPath3604"><path
         d="m 72.12,430.32 413.64,0 0,158.64 -413.64,0 0,-158.64 z"
         id="path3606"
         inkscape:connector-curvature="0"
         style="clip-rule:evenodd" /></clipPath><clipPath
       clipPathUnits="userSpaceOnUse"
       id="clipPath3616"><path
         d="m 72.12,430.32 413.64,0 0,158.64 -413.64,0 0,-158.64 z"
         id="path3618"
         inkscape:connector-curvature="0"
         style="clip-rule:evenodd" /></clipPath><clipPath
       clipPathUnits="userSpaceOnUse"
       id="clipPath3628"><path
         d="m 72.12,430.32 413.64,0 0,158.64 -413.64,0 0,-158.64 z"
         id="path3630"
         inkscape:connector-curvature="0"
         style="clip-rule:evenodd" /></clipPath><clipPath
       clipPathUnits="userSpaceOnUse"
       id="clipPath3640"><path
         d="m 72.12,430.32 413.64,0 0,158.64 -413.64,0 0,-158.64 z"
         id="path3642"
         inkscape:connector-curvature="0"
         style="clip-rule:evenodd" /></clipPath><clipPath
       clipPathUnits="userSpaceOnUse"
       id="clipPath3652"><path
         d="m 72.12,430.32 413.64,0 0,158.64 -413.64,0 0,-158.64 z"
         id="path3654"
         inkscape:connector-curvature="0"
         style="clip-rule:evenodd" /></clipPath><clipPath
       clipPathUnits="userSpaceOnUse"
       id="clipPath3670"><path
         d="m 72.12,430.32 413.64,0 0,158.64 -413.64,0 0,-158.64 z"
         id="path3672"
         inkscape:connector-curvature="0"
         style="clip-rule:evenodd" /></clipPath><clipPath
       clipPathUnits="userSpaceOnUse"
       id="clipPath3688"><path
         d="m 72.12,430.32 413.64,0 0,158.64 -413.64,0 0,-158.64 z"
         id="path3690"
         inkscape:connector-curvature="0"
         style="clip-rule:evenodd" /></clipPath><clipPath
       clipPathUnits="userSpaceOnUse"
       id="clipPath3800"><path
         d="m 73.8,607.92 414.72,0 0,159.72 -414.72,0 0,-159.72 z"
         id="path3802"
         inkscape:connector-curvature="0"
         style="clip-rule:evenodd" /></clipPath><clipPath
       clipPathUnits="userSpaceOnUse"
       id="clipPath3812"><path
         d="m 73.8,607.92 414.72,0 0,159.72 -414.72,0 0,-159.72 z"
         id="path3814"
         inkscape:connector-curvature="0"
         style="clip-rule:evenodd" /></clipPath><clipPath
       clipPathUnits="userSpaceOnUse"
       id="clipPath3824"><path
         d="m 73.8,607.92 414.72,0 0,159.72 -414.72,0 0,-159.72 z"
         id="path3826"
         inkscape:connector-curvature="0"
         style="clip-rule:evenodd" /></clipPath><clipPath
       clipPathUnits="userSpaceOnUse"
       id="clipPath3836"><path
         d="m 73.8,607.92 414.72,0 0,159.72 -414.72,0 0,-159.72 z"
         id="path3838"
         inkscape:connector-curvature="0"
         style="clip-rule:evenodd" /></clipPath><clipPath
       clipPathUnits="userSpaceOnUse"
       id="clipPath3848"><path
         d="m 73.8,607.92 414.72,0 0,159.72 -414.72,0 0,-159.72 z"
         id="path3850"
         inkscape:connector-curvature="0"
         style="clip-rule:evenodd" /></clipPath><clipPath
       clipPathUnits="userSpaceOnUse"
       id="clipPath3860"><path
         d="m 73.8,607.92 414.72,0 0,159.72 -414.72,0 0,-159.72 z"
         id="path3862"
         inkscape:connector-curvature="0"
         style="clip-rule:evenodd" /></clipPath><clipPath
       clipPathUnits="userSpaceOnUse"
       id="clipPath3872"><path
         d="m 73.8,607.92 414.72,0 0,159.72 -414.72,0 0,-159.72 z"
         id="path3874"
         inkscape:connector-curvature="0"
         style="clip-rule:evenodd" /></clipPath><clipPath
       clipPathUnits="userSpaceOnUse"
       id="clipPath3884"><path
         d="m 73.8,607.92 414.72,0 0,159.72 -414.72,0 0,-159.72 z"
         id="path3886"
         inkscape:connector-curvature="0"
         style="clip-rule:evenodd" /></clipPath><clipPath
       clipPathUnits="userSpaceOnUse"
       id="clipPath3896"><path
         d="m 73.8,607.92 414.72,0 0,159.72 -414.72,0 0,-159.72 z"
         id="path3898"
         inkscape:connector-curvature="0"
         style="clip-rule:evenodd" /></clipPath><clipPath
       clipPathUnits="userSpaceOnUse"
       id="clipPath3908"><path
         d="m 73.8,607.92 414.72,0 0,159.72 -414.72,0 0,-159.72 z"
         id="path3910"
         inkscape:connector-curvature="0"
         style="clip-rule:evenodd" /></clipPath><clipPath
       clipPathUnits="userSpaceOnUse"
       id="clipPath3920"><path
         d="m 73.8,607.92 414.72,0 0,159.72 -414.72,0 0,-159.72 z"
         id="path3922"
         inkscape:connector-curvature="0"
         style="clip-rule:evenodd" /></clipPath><clipPath
       clipPathUnits="userSpaceOnUse"
       id="clipPath3932"><path
         d="m 73.8,607.92 414.72,0 0,159.72 -414.72,0 0,-159.72 z"
         id="path3934"
         inkscape:connector-curvature="0"
         style="clip-rule:evenodd" /></clipPath><clipPath
       clipPathUnits="userSpaceOnUse"
       id="clipPath3944"><path
         d="m 73.8,607.92 414.72,0 0,159.72 -414.72,0 0,-159.72 z"
         id="path3946"
         inkscape:connector-curvature="0"
         style="clip-rule:evenodd" /></clipPath><clipPath
       clipPathUnits="userSpaceOnUse"
       id="clipPath3956"><path
         d="m 73.8,607.92 414.72,0 0,159.72 -414.72,0 0,-159.72 z"
         id="path3958"
         inkscape:connector-curvature="0"
         style="clip-rule:evenodd" /></clipPath><clipPath
       clipPathUnits="userSpaceOnUse"
       id="clipPath3968"><path
         d="m 73.8,607.92 414.72,0 0,159.72 -414.72,0 0,-159.72 z"
         id="path3970"
         inkscape:connector-curvature="0"
         style="clip-rule:evenodd" /></clipPath><clipPath
       clipPathUnits="userSpaceOnUse"
       id="clipPath3980"><path
         d="m 73.8,607.92 414.72,0 0,159.72 -414.72,0 0,-159.72 z"
         id="path3982"
         inkscape:connector-curvature="0"
         style="clip-rule:evenodd" /></clipPath><clipPath
       clipPathUnits="userSpaceOnUse"
       id="clipPath3992"><path
         d="m 73.8,607.92 414.72,0 0,159.72 -414.72,0 0,-159.72 z"
         id="path3994"
         inkscape:connector-curvature="0"
         style="clip-rule:evenodd" /></clipPath><clipPath
       clipPathUnits="userSpaceOnUse"
       id="clipPath4010"><path
         d="m 73.8,607.92 414.72,0 0,159.72 -414.72,0 0,-159.72 z"
         id="path4012"
         inkscape:connector-curvature="0"
         style="clip-rule:evenodd" /></clipPath><clipPath
       clipPathUnits="userSpaceOnUse"
       id="clipPath4028"><path
         d="m 73.8,607.92 414.72,0 0,159.72 -414.72,0 0,-159.72 z"
         id="path4030"
         inkscape:connector-curvature="0"
         style="clip-rule:evenodd" /></clipPath></defs><sodipodi:namedview
     pagecolor="#ffffff"
     bordercolor="#666666"
     borderopacity="1"
     objecttolerance="10"
     gridtolerance="10"
     guidetolerance="10"
     inkscape:pageopacity="0"
     inkscape:pageshadow="2"
     inkscape:window-width="1920"
     inkscape:window-height="1027"
     id="namedview3338"
     showgrid="false"
     inkscape:zoom="1.2685458"
     inkscape:cx="415.30141"
     inkscape:cy="218.10343"
     inkscape:window-x="-8"
     inkscape:window-y="-8"
     inkscape:window-maximized="1"
     inkscape:current-layer="g3344" /><g
     id="g3344"
     inkscape:groupmode="layer"
     inkscape:label="SearchAThing.Arduino.Utils.compareDPrint"
     transform="matrix(1.25,0,0,-1.25,0,199.33698)"><path
       d="m 0.375,0.37498047 413.74,0 0,158.71999953 -413.74,0 0,-158.71999953 z"
       style="fill:#ffffff;fill-opacity:1;fill-rule:evenodd;stroke:none"
       id="path3346"
       inkscape:connector-curvature="0" /><path
       d="m 28.905,87.33498 374.21,0 m -374.21,8.64 374.21,0 m -374.21,8.64 374.21,0 m -374.21,8.76 374.21,0 m -374.21,8.63 374.21,0"
       style="fill:none;stroke:#d9d9d9;stroke-width:0.75;stroke-linecap:butt;stroke-linejoin:round;stroke-miterlimit:10;stroke-dasharray:none;stroke-opacity:1"
       id="path3348"
       inkscape:connector-curvature="0" /><path
       d="m 28.905,78.63498 374.21,0"
       style="fill:none;stroke:#d9d9d9;stroke-width:0.75;stroke-linecap:butt;stroke-linejoin:round;stroke-miterlimit:10;stroke-dasharray:none;stroke-opacity:1"
       id="path3350"
       inkscape:connector-curvature="0" /><path
       d="m 45.915,110.20498 34.02,0 33.96,0 34.08,0 33.96,0 34.08,0 33.96,0.65 34.08,-0.65 33.96,0 34.08,0 34.01,3.13"
       style="fill:none;stroke:#5b9bd5;stroke-width:2.25;stroke-linecap:round;stroke-linejoin:round;stroke-miterlimit:10;stroke-dasharray:none;stroke-opacity:1"
       id="path3352"
       inkscape:connector-curvature="0" /><path
       d="m 48.375,110.25498 c 0,-1.39 -1.13,-2.52 -2.52,-2.52 -1.39,0 -2.52,1.13 -2.52,2.52 0,1.39 1.13,2.52 2.52,2.52 1.39,0 2.52,-1.13 2.52,-2.52 z"
       style="fill:#5b9bd5;fill-opacity:1;fill-rule:nonzero;stroke:none"
       id="path3354"
       inkscape:connector-curvature="0" /><path
       d="m 48.375,110.25498 c 0,-1.39 -1.13,-2.52 -2.52,-2.52 -1.39,0 -2.52,1.13 -2.52,2.52 0,1.39 1.13,2.52 2.52,2.52 1.39,0 2.52,-1.13 2.52,-2.52 z"
       style="fill:none;stroke:#5b9bd5;stroke-width:0.72000003;stroke-linecap:butt;stroke-linejoin:round;stroke-miterlimit:10;stroke-dasharray:none;stroke-opacity:1"
       id="path3356"
       inkscape:connector-curvature="0" /><path
       d="m 82.455,110.25498 c 0,-1.39 -1.13,-2.52 -2.52,-2.52 -1.39,0 -2.52,1.13 -2.52,2.52 0,1.39 1.13,2.52 2.52,2.52 1.39,0 2.52,-1.13 2.52,-2.52 z"
       style="fill:#5b9bd5;fill-opacity:1;fill-rule:nonzero;stroke:none"
       id="path3358"
       inkscape:connector-curvature="0" /><path
       d="m 82.455,110.25498 c 0,-1.39 -1.13,-2.52 -2.52,-2.52 -1.39,0 -2.52,1.13 -2.52,2.52 0,1.39 1.13,2.52 2.52,2.52 1.39,0 2.52,-1.13 2.52,-2.52 z"
       style="fill:none;stroke:#5b9bd5;stroke-width:0.72000003;stroke-linecap:butt;stroke-linejoin:round;stroke-miterlimit:10;stroke-dasharray:none;stroke-opacity:1"
       id="path3360"
       inkscape:connector-curvature="0" /><path
       d="m 116.415,110.25498 c 0,-1.39 -1.13,-2.52 -2.52,-2.52 -1.39,0 -2.52,1.13 -2.52,2.52 0,1.39 1.13,2.52 2.52,2.52 1.39,0 2.52,-1.13 2.52,-2.52 z"
       style="fill:#5b9bd5;fill-opacity:1;fill-rule:nonzero;stroke:none"
       id="path3362"
       inkscape:connector-curvature="0" /><path
       d="m 116.415,110.25498 c 0,-1.39 -1.13,-2.52 -2.52,-2.52 -1.39,0 -2.52,1.13 -2.52,2.52 0,1.39 1.13,2.52 2.52,2.52 1.39,0 2.52,-1.13 2.52,-2.52 z"
       style="fill:none;stroke:#5b9bd5;stroke-width:0.72000003;stroke-linecap:butt;stroke-linejoin:round;stroke-miterlimit:10;stroke-dasharray:none;stroke-opacity:1"
       id="path3364"
       inkscape:connector-curvature="0" /><path
       d="m 150.495,110.25498 c 0,-1.39 -1.13,-2.52 -2.52,-2.52 -1.39,0 -2.52,1.13 -2.52,2.52 0,1.39 1.13,2.52 2.52,2.52 1.39,0 2.52,-1.13 2.52,-2.52 z"
       style="fill:#5b9bd5;fill-opacity:1;fill-rule:nonzero;stroke:none"
       id="path3366"
       inkscape:connector-curvature="0" /><path
       d="m 150.495,110.25498 c 0,-1.39 -1.13,-2.52 -2.52,-2.52 -1.39,0 -2.52,1.13 -2.52,2.52 0,1.39 1.13,2.52 2.52,2.52 1.39,0 2.52,-1.13 2.52,-2.52 z"
       style="fill:none;stroke:#5b9bd5;stroke-width:0.72000003;stroke-linecap:butt;stroke-linejoin:round;stroke-miterlimit:10;stroke-dasharray:none;stroke-opacity:1"
       id="path3368"
       inkscape:connector-curvature="0" /><path
       d="m 184.455,110.25498 c 0,-1.39 -1.13,-2.52 -2.52,-2.52 -1.39,0 -2.52,1.13 -2.52,2.52 0,1.39 1.13,2.52 2.52,2.52 1.39,0 2.52,-1.13 2.52,-2.52 z"
       style="fill:#5b9bd5;fill-opacity:1;fill-rule:nonzero;stroke:none"
       id="path3370"
       inkscape:connector-curvature="0" /><path
       d="m 184.455,110.25498 c 0,-1.39 -1.13,-2.52 -2.52,-2.52 -1.39,0 -2.52,1.13 -2.52,2.52 0,1.39 1.13,2.52 2.52,2.52 1.39,0 2.52,-1.13 2.52,-2.52 z"
       style="fill:none;stroke:#5b9bd5;stroke-width:0.72000003;stroke-linecap:butt;stroke-linejoin:round;stroke-miterlimit:10;stroke-dasharray:none;stroke-opacity:1"
       id="path3372"
       inkscape:connector-curvature="0" /><path
       d="m 218.535,110.25498 c 0,-1.39 -1.13,-2.52 -2.52,-2.52 -1.39,0 -2.52,1.13 -2.52,2.52 0,1.39 1.13,2.52 2.52,2.52 1.39,0 2.52,-1.13 2.52,-2.52 z"
       style="fill:#5b9bd5;fill-opacity:1;fill-rule:nonzero;stroke:none"
       id="path3374"
       inkscape:connector-curvature="0" /><path
       d="m 218.535,110.25498 c 0,-1.39 -1.13,-2.52 -2.52,-2.52 -1.39,0 -2.52,1.13 -2.52,2.52 0,1.39 1.13,2.52 2.52,2.52 1.39,0 2.52,-1.13 2.52,-2.52 z"
       style="fill:none;stroke:#5b9bd5;stroke-width:0.72000003;stroke-linecap:butt;stroke-linejoin:round;stroke-miterlimit:10;stroke-dasharray:none;stroke-opacity:1"
       id="path3376"
       inkscape:connector-curvature="0" /><path
       d="m 252.495,110.85498 c 0,-1.39 -1.13,-2.52 -2.52,-2.52 -1.39,0 -2.52,1.13 -2.52,2.52 0,1.39 1.13,2.52 2.52,2.52 1.39,0 2.52,-1.13 2.52,-2.52 z"
       style="fill:#5b9bd5;fill-opacity:1;fill-rule:nonzero;stroke:none"
       id="path3378"
       inkscape:connector-curvature="0" /><path
       d="m 252.495,110.85498 c 0,-1.39 -1.13,-2.52 -2.52,-2.52 -1.39,0 -2.52,1.13 -2.52,2.52 0,1.39 1.13,2.52 2.52,2.52 1.39,0 2.52,-1.13 2.52,-2.52 z"
       style="fill:none;stroke:#5b9bd5;stroke-width:0.72000003;stroke-linecap:butt;stroke-linejoin:round;stroke-miterlimit:10;stroke-dasharray:none;stroke-opacity:1"
       id="path3380"
       inkscape:connector-curvature="0" /><path
       d="m 286.575,110.25498 c 0,-1.39 -1.13,-2.52 -2.52,-2.52 -1.39,0 -2.52,1.13 -2.52,2.52 0,1.39 1.13,2.52 2.52,2.52 1.39,0 2.52,-1.13 2.52,-2.52 z"
       style="fill:#5b9bd5;fill-opacity:1;fill-rule:nonzero;stroke:none"
       id="path3382"
       inkscape:connector-curvature="0" /><path
       d="m 286.575,110.25498 c 0,-1.39 -1.13,-2.52 -2.52,-2.52 -1.39,0 -2.52,1.13 -2.52,2.52 0,1.39 1.13,2.52 2.52,2.52 1.39,0 2.52,-1.13 2.52,-2.52 z"
       style="fill:none;stroke:#5b9bd5;stroke-width:0.72000003;stroke-linecap:butt;stroke-linejoin:round;stroke-miterlimit:10;stroke-dasharray:none;stroke-opacity:1"
       id="path3384"
       inkscape:connector-curvature="0" /><path
       d="m 320.535,110.25498 c 0,-1.39 -1.13,-2.52 -2.52,-2.52 -1.39,0 -2.52,1.13 -2.52,2.52 0,1.39 1.13,2.52 2.52,2.52 1.39,0 2.52,-1.13 2.52,-2.52 z"
       style="fill:#5b9bd5;fill-opacity:1;fill-rule:nonzero;stroke:none"
       id="path3386"
       inkscape:connector-curvature="0" /><path
       d="m 320.535,110.25498 c 0,-1.39 -1.13,-2.52 -2.52,-2.52 -1.39,0 -2.52,1.13 -2.52,2.52 0,1.39 1.13,2.52 2.52,2.52 1.39,0 2.52,-1.13 2.52,-2.52 z"
       style="fill:none;stroke:#5b9bd5;stroke-width:0.72000003;stroke-linecap:butt;stroke-linejoin:round;stroke-miterlimit:10;stroke-dasharray:none;stroke-opacity:1"
       id="path3388"
       inkscape:connector-curvature="0" /><path
       d="m 354.615,110.25498 c 0,-1.39 -1.13,-2.52 -2.52,-2.52 -1.39,0 -2.52,1.13 -2.52,2.52 0,1.39 1.13,2.52 2.52,2.52 1.39,0 2.52,-1.13 2.52,-2.52 z"
       style="fill:#5b9bd5;fill-opacity:1;fill-rule:nonzero;stroke:none"
       id="path3390"
       inkscape:connector-curvature="0" /><path
       d="m 354.615,110.25498 c 0,-1.39 -1.13,-2.52 -2.52,-2.52 -1.39,0 -2.52,1.13 -2.52,2.52 0,1.39 1.13,2.52 2.52,2.52 1.39,0 2.52,-1.13 2.52,-2.52 z"
       style="fill:none;stroke:#5b9bd5;stroke-width:0.72000003;stroke-linecap:butt;stroke-linejoin:round;stroke-miterlimit:10;stroke-dasharray:none;stroke-opacity:1"
       id="path3392"
       inkscape:connector-curvature="0" /><path
       d="m 388.575,113.37498 c 0,-1.39 -1.13,-2.52 -2.52,-2.52 -1.39,0 -2.52,1.13 -2.52,2.52 0,1.39 1.13,2.52 2.52,2.52 1.39,0 2.52,-1.13 2.52,-2.52 z"
       style="fill:#5b9bd5;fill-opacity:1;fill-rule:nonzero;stroke:none"
       id="path3394"
       inkscape:connector-curvature="0" /><path
       d="m 388.575,113.37498 c 0,-1.39 -1.13,-2.52 -2.52,-2.52 -1.39,0 -2.52,1.13 -2.52,2.52 0,1.39 1.13,2.52 2.52,2.52 1.39,0 2.52,-1.13 2.52,-2.52 z"
       style="fill:none;stroke:#5b9bd5;stroke-width:0.72000003;stroke-linecap:butt;stroke-linejoin:round;stroke-miterlimit:10;stroke-dasharray:none;stroke-opacity:1"
       id="path3396"
       inkscape:connector-curvature="0" /><path
       d="m 45.915,81.40498 34.02,0 33.96,0 34.08,0 33.96,0 34.08,0 33.96,0.7 34.08,-0.7 33.96,0 34.08,0 34.01,0"
       style="fill:none;stroke:#ed7d31;stroke-width:2.25;stroke-linecap:round;stroke-linejoin:round;stroke-miterlimit:10;stroke-dasharray:none;stroke-opacity:1"
       id="path3398"
       inkscape:connector-curvature="0" /><path
       d="m 48.375,81.45498 c 0,-1.39 -1.13,-2.52 -2.52,-2.52 -1.39,0 -2.52,1.13 -2.52,2.52 0,1.39 1.13,2.52 2.52,2.52 1.39,0 2.52,-1.13 2.52,-2.52 z"
       style="fill:#ed7d31;fill-opacity:1;fill-rule:nonzero;stroke:none"
       id="path3400"
       inkscape:connector-curvature="0" /><path
       d="m 48.375,81.45498 c 0,-1.39 -1.13,-2.52 -2.52,-2.52 -1.39,0 -2.52,1.13 -2.52,2.52 0,1.39 1.13,2.52 2.52,2.52 1.39,0 2.52,-1.13 2.52,-2.52 z"
       style="fill:none;stroke:#ed7d31;stroke-width:0.72000003;stroke-linecap:butt;stroke-linejoin:round;stroke-miterlimit:10;stroke-dasharray:none;stroke-opacity:1"
       id="path3402"
       inkscape:connector-curvature="0" /><path
       d="m 82.455,81.45498 c 0,-1.39 -1.13,-2.52 -2.52,-2.52 -1.39,0 -2.52,1.13 -2.52,2.52 0,1.39 1.13,2.52 2.52,2.52 1.39,0 2.52,-1.13 2.52,-2.52 z"
       style="fill:#ed7d31;fill-opacity:1;fill-rule:nonzero;stroke:none"
       id="path3404"
       inkscape:connector-curvature="0" /><path
       d="m 82.455,81.45498 c 0,-1.39 -1.13,-2.52 -2.52,-2.52 -1.39,0 -2.52,1.13 -2.52,2.52 0,1.39 1.13,2.52 2.52,2.52 1.39,0 2.52,-1.13 2.52,-2.52 z"
       style="fill:none;stroke:#ed7d31;stroke-width:0.72000003;stroke-linecap:butt;stroke-linejoin:round;stroke-miterlimit:10;stroke-dasharray:none;stroke-opacity:1"
       id="path3406"
       inkscape:connector-curvature="0" /><path
       d="m 116.415,81.45498 c 0,-1.39 -1.13,-2.52 -2.52,-2.52 -1.39,0 -2.52,1.13 -2.52,2.52 0,1.39 1.13,2.52 2.52,2.52 1.39,0 2.52,-1.13 2.52,-2.52 z"
       style="fill:#ed7d31;fill-opacity:1;fill-rule:nonzero;stroke:none"
       id="path3408"
       inkscape:connector-curvature="0" /><path
       d="m 116.415,81.45498 c 0,-1.39 -1.13,-2.52 -2.52,-2.52 -1.39,0 -2.52,1.13 -2.52,2.52 0,1.39 1.13,2.52 2.52,2.52 1.39,0 2.52,-1.13 2.52,-2.52 z"
       style="fill:none;stroke:#ed7d31;stroke-width:0.72000003;stroke-linecap:butt;stroke-linejoin:round;stroke-miterlimit:10;stroke-dasharray:none;stroke-opacity:1"
       id="path3410"
       inkscape:connector-curvature="0" /><path
       d="m 150.495,81.45498 c 0,-1.39 -1.13,-2.52 -2.52,-2.52 -1.39,0 -2.52,1.13 -2.52,2.52 0,1.39 1.13,2.52 2.52,2.52 1.39,0 2.52,-1.13 2.52,-2.52 z"
       style="fill:#ed7d31;fill-opacity:1;fill-rule:nonzero;stroke:none"
       id="path3412"
       inkscape:connector-curvature="0" /><path
       d="m 150.495,81.45498 c 0,-1.39 -1.13,-2.52 -2.52,-2.52 -1.39,0 -2.52,1.13 -2.52,2.52 0,1.39 1.13,2.52 2.52,2.52 1.39,0 2.52,-1.13 2.52,-2.52 z"
       style="fill:none;stroke:#ed7d31;stroke-width:0.72000003;stroke-linecap:butt;stroke-linejoin:round;stroke-miterlimit:10;stroke-dasharray:none;stroke-opacity:1"
       id="path3414"
       inkscape:connector-curvature="0" /><path
       d="m 184.455,81.45498 c 0,-1.39 -1.13,-2.52 -2.52,-2.52 -1.39,0 -2.52,1.13 -2.52,2.52 0,1.39 1.13,2.52 2.52,2.52 1.39,0 2.52,-1.13 2.52,-2.52 z"
       style="fill:#ed7d31;fill-opacity:1;fill-rule:nonzero;stroke:none"
       id="path3416"
       inkscape:connector-curvature="0" /><path
       d="m 184.455,81.45498 c 0,-1.39 -1.13,-2.52 -2.52,-2.52 -1.39,0 -2.52,1.13 -2.52,2.52 0,1.39 1.13,2.52 2.52,2.52 1.39,0 2.52,-1.13 2.52,-2.52 z"
       style="fill:none;stroke:#ed7d31;stroke-width:0.72000003;stroke-linecap:butt;stroke-linejoin:round;stroke-miterlimit:10;stroke-dasharray:none;stroke-opacity:1"
       id="path3418"
       inkscape:connector-curvature="0" /><path
       d="m 218.535,81.45498 c 0,-1.39 -1.13,-2.52 -2.52,-2.52 -1.39,0 -2.52,1.13 -2.52,2.52 0,1.39 1.13,2.52 2.52,2.52 1.39,0 2.52,-1.13 2.52,-2.52 z"
       style="fill:#ed7d31;fill-opacity:1;fill-rule:nonzero;stroke:none"
       id="path3420"
       inkscape:connector-curvature="0" /><path
       d="m 218.535,81.45498 c 0,-1.39 -1.13,-2.52 -2.52,-2.52 -1.39,0 -2.52,1.13 -2.52,2.52 0,1.39 1.13,2.52 2.52,2.52 1.39,0 2.52,-1.13 2.52,-2.52 z"
       style="fill:none;stroke:#ed7d31;stroke-width:0.72000003;stroke-linecap:butt;stroke-linejoin:round;stroke-miterlimit:10;stroke-dasharray:none;stroke-opacity:1"
       id="path3422"
       inkscape:connector-curvature="0" /><path
       d="m 252.495,82.05498 c 0,-1.39 -1.13,-2.52 -2.52,-2.52 -1.39,0 -2.52,1.13 -2.52,2.52 0,1.39 1.13,2.52 2.52,2.52 1.39,0 2.52,-1.13 2.52,-2.52 z"
       style="fill:#ed7d31;fill-opacity:1;fill-rule:nonzero;stroke:none"
       id="path3424"
       inkscape:connector-curvature="0" /><path
       d="m 252.495,82.05498 c 0,-1.39 -1.13,-2.52 -2.52,-2.52 -1.39,0 -2.52,1.13 -2.52,2.52 0,1.39 1.13,2.52 2.52,2.52 1.39,0 2.52,-1.13 2.52,-2.52 z"
       style="fill:none;stroke:#ed7d31;stroke-width:0.72000003;stroke-linecap:butt;stroke-linejoin:round;stroke-miterlimit:10;stroke-dasharray:none;stroke-opacity:1"
       id="path3426"
       inkscape:connector-curvature="0" /><path
       d="m 286.575,81.45498 c 0,-1.39 -1.13,-2.52 -2.52,-2.52 -1.39,0 -2.52,1.13 -2.52,2.52 0,1.39 1.13,2.52 2.52,2.52 1.39,0 2.52,-1.13 2.52,-2.52 z"
       style="fill:#ed7d31;fill-opacity:1;fill-rule:nonzero;stroke:none"
       id="path3428"
       inkscape:connector-curvature="0" /><path
       d="m 286.575,81.45498 c 0,-1.39 -1.13,-2.52 -2.52,-2.52 -1.39,0 -2.52,1.13 -2.52,2.52 0,1.39 1.13,2.52 2.52,2.52 1.39,0 2.52,-1.13 2.52,-2.52 z"
       style="fill:none;stroke:#ed7d31;stroke-width:0.72000003;stroke-linecap:butt;stroke-linejoin:round;stroke-miterlimit:10;stroke-dasharray:none;stroke-opacity:1"
       id="path3430"
       inkscape:connector-curvature="0" /><path
       d="m 320.535,81.45498 c 0,-1.39 -1.13,-2.52 -2.52,-2.52 -1.39,0 -2.52,1.13 -2.52,2.52 0,1.39 1.13,2.52 2.52,2.52 1.39,0 2.52,-1.13 2.52,-2.52 z"
       style="fill:#ed7d31;fill-opacity:1;fill-rule:nonzero;stroke:none"
       id="path3432"
       inkscape:connector-curvature="0" /><path
       d="m 320.535,81.45498 c 0,-1.39 -1.13,-2.52 -2.52,-2.52 -1.39,0 -2.52,1.13 -2.52,2.52 0,1.39 1.13,2.52 2.52,2.52 1.39,0 2.52,-1.13 2.52,-2.52 z"
       style="fill:none;stroke:#ed7d31;stroke-width:0.72000003;stroke-linecap:butt;stroke-linejoin:round;stroke-miterlimit:10;stroke-dasharray:none;stroke-opacity:1"
       id="path3434"
       inkscape:connector-curvature="0" /><path
       d="m 354.615,81.45498 c 0,-1.39 -1.13,-2.52 -2.52,-2.52 -1.39,0 -2.52,1.13 -2.52,2.52 0,1.39 1.13,2.52 2.52,2.52 1.39,0 2.52,-1.13 2.52,-2.52 z"
       style="fill:#ed7d31;fill-opacity:1;fill-rule:nonzero;stroke:none"
       id="path3436"
       inkscape:connector-curvature="0" /><path
       d="m 354.615,81.45498 c 0,-1.39 -1.13,-2.52 -2.52,-2.52 -1.39,0 -2.52,1.13 -2.52,2.52 0,1.39 1.13,2.52 2.52,2.52 1.39,0 2.52,-1.13 2.52,-2.52 z"
       style="fill:none;stroke:#ed7d31;stroke-width:0.72000003;stroke-linecap:butt;stroke-linejoin:round;stroke-miterlimit:10;stroke-dasharray:none;stroke-opacity:1"
       id="path3438"
       inkscape:connector-curvature="0" /><path
       d="m 388.575,81.45498 c 0,-1.39 -1.13,-2.52 -2.52,-2.52 -1.39,0 -2.52,1.13 -2.52,2.52 0,1.39 1.13,2.52 2.52,2.52 1.39,0 2.52,-1.13 2.52,-2.52 z"
       style="fill:#ed7d31;fill-opacity:1;fill-rule:nonzero;stroke:none"
       id="path3440"
       inkscape:connector-curvature="0" /><path
       d="m 388.575,81.45498 c 0,-1.39 -1.13,-2.52 -2.52,-2.52 -1.39,0 -2.52,1.13 -2.52,2.52 0,1.39 1.13,2.52 2.52,2.52 1.39,0 2.52,-1.13 2.52,-2.52 z"
       style="fill:none;stroke:#ed7d31;stroke-width:0.72000003;stroke-linecap:butt;stroke-linejoin:round;stroke-miterlimit:10;stroke-dasharray:none;stroke-opacity:1"
       id="path3442"
       inkscape:connector-curvature="0" /><g
       id="g3444"
       transform="translate(-71.745,-429.86502)"><g
         id="g3446"
         clip-path="url(#clipPath3448)"><text
           transform="matrix(1,0,0,-1,87.768,505.92)"
           style="font-variant:normal;font-weight:normal;font-size:9px;font-family:Calibri;-inkscape-font-specification:Calibri;writing-mode:lr-tb;fill:#595959;fill-opacity:1;fill-rule:nonzero;stroke:none"
           id="text3452"><tspan
             x="0"
             y="0"
             id="tspan3454">0</tspan></text>
</g></g><g
       id="g3456"
       transform="translate(-71.745,-429.86502)"><g
         id="g3458"
         clip-path="url(#clipPath3460)"><text
           transform="matrix(1,0,0,-1,83.208,514.61)"
           style="font-variant:normal;font-weight:normal;font-size:9px;font-family:Calibri;-inkscape-font-specification:Calibri;writing-mode:lr-tb;fill:#595959;fill-opacity:1;fill-rule:nonzero;stroke:none"
           id="text3464"><tspan
             x="0 4.5599999"
             y="0"
             sodipodi:role="line"
             id="tspan3466">50</tspan></text>
</g></g><g
       id="g3468"
       transform="translate(-71.745,-429.86502)"><g
         id="g3470"
         clip-path="url(#clipPath3472)"><text
           transform="matrix(1,0,0,-1,78.624,523.27)"
           style="font-variant:normal;font-weight:normal;font-size:9px;font-family:Calibri;-inkscape-font-specification:Calibri;writing-mode:lr-tb;fill:#595959;fill-opacity:1;fill-rule:nonzero;stroke:none"
           id="text3476"><tspan
             x="0 4.5599999 9.1199999"
             y="0"
             sodipodi:role="line"
             id="tspan3478">100</tspan></text>
</g></g><g
       id="g3480"
       transform="translate(-71.745,-429.86502)"><g
         id="g3482"
         clip-path="url(#clipPath3484)"><text
           transform="matrix(1,0,0,-1,78.624,531.94)"
           style="font-variant:normal;font-weight:normal;font-size:9px;font-family:Calibri;-inkscape-font-specification:Calibri;writing-mode:lr-tb;fill:#595959;fill-opacity:1;fill-rule:nonzero;stroke:none"
           id="text3488"><tspan
             x="0 4.5599999 9.1199999"
             y="0"
             sodipodi:role="line"
             id="tspan3490">150</tspan></text>
</g></g><g
       id="g3492"
       transform="translate(-71.745,-429.86502)"><g
         id="g3494"
         clip-path="url(#clipPath3496)"><text
           transform="matrix(1,0,0,-1,78.624,540.62)"
           style="font-variant:normal;font-weight:normal;font-size:9px;font-family:Calibri;-inkscape-font-specification:Calibri;writing-mode:lr-tb;fill:#595959;fill-opacity:1;fill-rule:nonzero;stroke:none"
           id="text3500"><tspan
             x="0 4.5599999 9.1199999"
             y="0"
             sodipodi:role="line"
             id="tspan3502">200</tspan></text>
</g></g><g
       id="g3504"
       transform="translate(-71.745,-429.86502)"><g
         id="g3506"
         clip-path="url(#clipPath3508)"><text
           transform="matrix(1,0,0,-1,78.624,549.29)"
           style="font-variant:normal;font-weight:normal;font-size:9px;font-family:Calibri;-inkscape-font-specification:Calibri;writing-mode:lr-tb;fill:#595959;fill-opacity:1;fill-rule:nonzero;stroke:none"
           id="text3512"><tspan
             x="0 4.5599999 9.1199999"
             y="0"
             sodipodi:role="line"
             id="tspan3514">250</tspan></text>
</g></g><g
       id="g3516"
       transform="translate(-71.745,-429.86502)"><g
         id="g3518"
         clip-path="url(#clipPath3520)"><text
           transform="matrix(-4.4e-8,-1,-1,4.4e-8,114.65,502.73)"
           style="font-variant:normal;font-weight:normal;font-size:9px;font-family:Calibri;-inkscape-font-specification:Calibri;writing-mode:lr-tb;fill:#595959;fill-opacity:1;fill-rule:nonzero;stroke:none"
           id="text3524"><tspan
             x="0 5.7600002 10.314 16.677 18.827999 20.871 25.551001"
             y="0"
             sodipodi:role="line"
             id="tspan3526">Newline</tspan></text>
</g></g><g
       id="g3528"
       transform="translate(-71.745,-429.86502)"><g
         id="g3530"
         clip-path="url(#clipPath3532)"><text
           transform="matrix(-4.4e-8,-1,-1,4.4e-8,148.68,502.73)"
           style="font-variant:normal;font-weight:normal;font-size:9px;font-family:Calibri;-inkscape-font-specification:Calibri;writing-mode:lr-tb;fill:#595959;fill-opacity:1;fill-rule:nonzero;stroke:none"
           id="text3536"><tspan
             x="0 4.7969999 9.4770002 13.788"
             y="0"
             sodipodi:role="line"
             id="tspan3538">Char</tspan></text>
</g></g><g
       id="g3540"
       transform="translate(-71.745,-429.86502)"><g
         id="g3542"
         clip-path="url(#clipPath3544)"><text
           transform="matrix(-4.4e-8,-1,-1,4.4e-8,182.71,502.73)"
           style="font-variant:normal;font-weight:normal;font-size:9px;font-family:Calibri;-inkscape-font-specification:Calibri;writing-mode:lr-tb;fill:#595959;fill-opacity:1;fill-rule:nonzero;stroke:none"
           id="text3548"><tspan
             x="0 4.8959999 8.9729996 11.988"
             y="0"
             sodipodi:role="line"
             id="tspan3550">Byte</tspan></text>
</g></g><g
       id="g3552"
       transform="translate(-71.745,-429.86502)"><g
         id="g3554"
         clip-path="url(#clipPath3556)"><text
           transform="matrix(-4.4e-8,-1,-1,4.4e-8,216.72,502.73)"
           style="font-variant:normal;font-weight:normal;font-size:9px;font-family:Calibri;-inkscape-font-specification:Calibri;writing-mode:lr-tb;fill:#595959;fill-opacity:1;fill-rule:nonzero;stroke:none"
           id="text3560"><tspan
             x="0 5.7779999 10.548 13.563 18.125999"
             y="0"
             sodipodi:role="line"
             id="tspan3562">Unt16</tspan></text>
</g></g><g
       id="g3564"
       transform="translate(-71.745,-429.86502)"><g
         id="g3566"
         clip-path="url(#clipPath3568)"><text
           transform="matrix(-4.4e-8,-1,-1,4.4e-8,250.75,502.73)"
           style="font-variant:normal;font-weight:normal;font-size:9px;font-family:Calibri;-inkscape-font-specification:Calibri;writing-mode:lr-tb;fill:#595959;fill-opacity:1;fill-rule:nonzero;stroke:none"
           id="text3572"><tspan
             x="0 5.7779999 7.803 12.591 15.606 20.169001"
             y="0"
             sodipodi:role="line"
             id="tspan3574">Uint32</tspan></text>
</g></g><g
       id="g3576"
       transform="translate(-71.745,-429.86502)"><g
         id="g3578"
         clip-path="url(#clipPath3580)"><text
           transform="matrix(-4.4e-8,-1,-1,4.4e-8,284.78,502.73)"
           style="font-variant:normal;font-weight:normal;font-size:9px;font-family:Calibri;-inkscape-font-specification:Calibri;writing-mode:lr-tb;fill:#595959;fill-opacity:1;fill-rule:nonzero;stroke:none"
           id="text3584"><tspan
             x="0 4.0770001 8.6309996 12.114 15.129"
             y="0"
             sodipodi:role="line"
             id="tspan3586">F_str</tspan></text>
</g></g><g
       id="g3588"
       transform="translate(-71.745,-429.86502)"><g
         id="g3590"
         clip-path="url(#clipPath3592)"><text
           transform="matrix(-4.4e-8,-1,-1,4.4e-8,318.82,502.73)"
           style="font-variant:normal;font-weight:normal;font-size:9px;font-family:Calibri;-inkscape-font-specification:Calibri;writing-mode:lr-tb;fill:#595959;fill-opacity:1;fill-rule:nonzero;stroke:none"
           id="text3596"><tspan
             x="0 4.0770001 7.191"
             y="0"
             sodipodi:role="line"
             id="tspan3598">Str</tspan></text>
</g></g><g
       id="g3600"
       transform="translate(-71.745,-429.86502)"><g
         id="g3602"
         clip-path="url(#clipPath3604)"><text
           transform="matrix(-4.4e-8,-1,-1,4.4e-8,352.82,502.73)"
           style="font-variant:normal;font-weight:normal;font-size:9px;font-family:Calibri;-inkscape-font-specification:Calibri;writing-mode:lr-tb;fill:#595959;fill-opacity:1;fill-rule:nonzero;stroke:none"
           id="text3608"><tspan
             x="0 5.6339998 10.071 14.022 16.785 21.465 25.542 28.556999 32.985001"
             y="0"
             sodipodi:role="line"
             id="tspan3610">Hex[byte]</tspan></text>
</g></g><g
       id="g3612"
       transform="translate(-71.745,-429.86502)"><g
         id="g3614"
         clip-path="url(#clipPath3616)"><text
           transform="matrix(-4.4e-8,-1,-1,4.4e-8,386.86,502.73)"
           style="font-variant:normal;font-weight:normal;font-size:9px;font-family:Calibri;-inkscape-font-specification:Calibri;writing-mode:lr-tb;fill:#595959;fill-opacity:1;fill-rule:nonzero;stroke:none"
           id="text3620"><tspan
             x="0 5.6339998 10.071 14.022 16.785 21.465 23.507999 28.296 31.311001 35.874001 40.437"
             y="0"
             sodipodi:role="line"
             id="tspan3622">Hex[uint16]</tspan></text>
</g></g><g
       id="g3624"
       transform="translate(-71.745,-429.86502)"><g
         id="g3626"
         clip-path="url(#clipPath3628)"><text
           transform="matrix(-4.4e-8,-1,-1,4.4e-8,420.89,502.73)"
           style="font-variant:normal;font-weight:normal;font-size:9px;font-family:Calibri;-inkscape-font-specification:Calibri;writing-mode:lr-tb;fill:#595959;fill-opacity:1;fill-rule:nonzero;stroke:none"
           id="text3632"><tspan
             x="0 5.6339998 10.071 14.022 16.785 21.465 23.507999 28.296 31.311001 35.874001 40.437"
             y="0"
             sodipodi:role="line"
             id="tspan3634">Hex[uint32]</tspan></text>
</g></g><g
       id="g3636"
       transform="translate(-71.745,-429.86502)"><g
         id="g3638"
         clip-path="url(#clipPath3640)"><text
           transform="matrix(-4.4e-8,-1,-1,4.4e-8,454.9,502.73)"
           style="font-variant:normal;font-weight:normal;font-size:9px;font-family:Calibri;-inkscape-font-specification:Calibri;writing-mode:lr-tb;fill:#595959;fill-opacity:1;fill-rule:nonzero;stroke:none"
           id="text3644"><tspan
             x="0 4.0770001 6.2280002 10.908 15.219"
             y="0"
             sodipodi:role="line"
             id="tspan3646">Float</tspan></text>
</g></g><g
       id="g3648"
       transform="translate(-71.745,-429.86502)"><g
         id="g3650"
         clip-path="url(#clipPath3652)"><text
           transform="matrix(1,0,0,-1,247.1,568.1)"
           style="font-variant:normal;font-weight:normal;font-size:14.03999996px;font-family:Calibri;-inkscape-font-specification:Calibri;writing-mode:lr-tb;fill:#595959;fill-opacity:1;fill-rule:nonzero;stroke:none"
           id="text3656"><tspan
             x="0 7.6658401 15.795 27.7992 30.831841 38.146679 43.636318 50.361481 56.862"
             y="0"
             sodipodi:role="line"
             id="tspan3658">RAM usage</tspan></text>
</g></g><path
       d="m 151.005,14.81498 19.2,0"
       style="fill:none;stroke:#5b9bd5;stroke-width:2.25;stroke-linecap:round;stroke-linejoin:round;stroke-miterlimit:10;stroke-dasharray:none;stroke-opacity:1"
       id="path3660"
       inkscape:connector-curvature="0" /><path
       d="m 163.095,14.85498 c 0,-1.39 -1.13,-2.52 -2.52,-2.52 -1.39,0 -2.52,1.13 -2.52,2.52 0,1.39 1.13,2.52 2.52,2.52 1.39,0 2.52,-1.13 2.52,-2.52 z"
       style="fill:#5b9bd5;fill-opacity:1;fill-rule:nonzero;stroke:none"
       id="path3662"
       inkscape:connector-curvature="0" /><path
       d="m 163.095,14.85498 c 0,-1.39 -1.13,-2.52 -2.52,-2.52 -1.39,0 -2.52,1.13 -2.52,2.52 0,1.39 1.13,2.52 2.52,2.52 1.39,0 2.52,-1.13 2.52,-2.52 z"
       style="fill:none;stroke:#5b9bd5;stroke-width:0.75;stroke-linecap:butt;stroke-linejoin:round;stroke-miterlimit:10;stroke-dasharray:none;stroke-opacity:1"
       id="path3664"
       inkscape:connector-curvature="0" /><g
       id="g3666"
       transform="translate(-71.745,-429.86502)"><g
         id="g3668"
         clip-path="url(#clipPath3670)"><text
           transform="matrix(1,0,0,-1,244.01,442.1)"
           style="font-variant:normal;font-weight:normal;font-size:9px;font-family:Calibri;-inkscape-font-specification:Calibri;writing-mode:lr-tb;fill:#595959;fill-opacity:1;fill-rule:nonzero;stroke:none"
           id="text3674"><tspan
             x="0 4.0770001 8.6309996 11.772 13.788 18.099001 20.169001 22.437 27.216 30.357 32.373001 37.053001"
             y="0"
             sodipodi:role="line"
             id="tspan3676">Serial.print</tspan></text>
</g></g><path
       d="m 222.575,14.81498 19.2,0"
       style="fill:none;stroke:#ed7d31;stroke-width:2.25;stroke-linecap:round;stroke-linejoin:round;stroke-miterlimit:10;stroke-dasharray:none;stroke-opacity:1"
       id="path3678"
       inkscape:connector-curvature="0" /><path
       d="m 234.615,14.85498 c 0,-1.39 -1.13,-2.52 -2.52,-2.52 -1.39,0 -2.52,1.13 -2.52,2.52 0,1.39 1.13,2.52 2.52,2.52 1.39,0 2.52,-1.13 2.52,-2.52 z"
       style="fill:#ed7d31;fill-opacity:1;fill-rule:nonzero;stroke:none"
       id="path3680"
       inkscape:connector-curvature="0" /><path
       d="m 234.615,14.85498 c 0,-1.39 -1.13,-2.52 -2.52,-2.52 -1.39,0 -2.52,1.13 -2.52,2.52 0,1.39 1.13,2.52 2.52,2.52 1.39,0 2.52,-1.13 2.52,-2.52 z"
       style="fill:none;stroke:#ed7d31;stroke-width:0.75;stroke-linecap:butt;stroke-linejoin:round;stroke-miterlimit:10;stroke-dasharray:none;stroke-opacity:1"
       id="path3682"
       inkscape:connector-curvature="0" /><g
       id="g3684"
       transform="translate(-71.745,-429.86502)"><g
         id="g3686"
         clip-path="url(#clipPath3688)"><text
           transform="matrix(1,0,0,-1,315.6,442.1)"
           style="font-variant:normal;font-weight:normal;font-size:9px;font-family:Calibri;-inkscape-font-specification:Calibri;writing-mode:lr-tb;fill:#595959;fill-opacity:1;fill-rule:nonzero;stroke:none"
           id="text3692"><tspan
             x="0 5.5349998 10.314 13.455 15.471 20.150999"
             y="0"
             sodipodi:role="line"
             id="tspan3694">Dprint</tspan></text>
</g></g><path
       d="m 0.375,0.37498047 413.74,0 0,158.71999953 -413.74,0 0,-158.71999953 z"
       style="fill:none;stroke:#d9d9d9;stroke-width:0.75;stroke-linecap:butt;stroke-linejoin:round;stroke-miterlimit:10;stroke-dasharray:none;stroke-opacity:1"
       id="path3696"
       inkscape:connector-curvature="0" /></g></svg>