<?xml version="1.0" encoding="UTF-8" standalone="no"?>
<!-- Created with Inkscape (http://www.inkscape.org/) -->

<svg
   xmlns:dc="http://purl.org/dc/elements/1.1/"
   xmlns:cc="http://creativecommons.org/ns#"
   xmlns:rdf="http://www.w3.org/1999/02/22-rdf-syntax-ns#"
   xmlns:svg="http://www.w3.org/2000/svg"
   xmlns="http://www.w3.org/2000/svg"
   xmlns:sodipodi="http://sodipodi.sourceforge.net/DTD/sodipodi-0.dtd"
   xmlns:inkscape="http://www.inkscape.org/namespaces/inkscape"
   id="svg3336"
   version="1.1"
   inkscape:version="0.91 r13725"
   xml:space="preserve"
   width="519.47498"
   height="200.58701"
   viewBox="0 0 519.47497 200.587"
   sodipodi:docname="SearchAThing.Arduino.Utils.compareDPrint_FLASH.svg"><metadata
     id="metadata3342"><rdf:RDF><cc:Work
         rdf:about=""><dc:format>image/svg+xml</dc:format><dc:type
           rdf:resource="http://purl.org/dc/dcmitype/StillImage" /><dc:title></dc:title></cc:Work></rdf:RDF></metadata><defs
     id="defs3340"><clipPath
       clipPathUnits="userSpaceOnUse"
       id="clipPath3448"><path
         d="m 72.12,430.32 413.64,0 0,158.64 -413.64,0 0,-158.64 z"
         id="path3450"
         inkscape:connector-curvature="0"
         style="clip-rule:evenodd" /></clipPath><clipPath
       clipPathUnits="userSpaceOnUse"
       id="clipPath3460"><path
         d="m 72.12,430.32 413.64,0 0,158.64 -413.64,0 0,-158.64 z"
         id="path3462"
         inkscape:connector-curvature="0"
         style="clip-rule:evenodd" /></clipPath><clipPath
       clipPathUnits="userSpaceOnUse"
       id="clipPath3472"><path
         d="m 72.12,430.32 413.64,0 0,158.64 -413.64,0 0,-158.64 z"
         id="path3474"
         inkscape:connector-curvature="0"
         style="clip-rule:evenodd" /></clipPath><clipPath
       clipPathUnits="userSpaceOnUse"
       id="clipPath3484"><path
         d="m 72.12,430.32 413.64,0 0,158.64 -413.64,0 0,-158.64 z"
         id="path3486"
         inkscape:connector-curvature="0"
         style="clip-rule:evenodd" /></clipPath><clipPath
       clipPathUnits="userSpaceOnUse"
       id="clipPath3496"><path
         d="m 72.12,430.32 413.64,0 0,158.64 -413.64,0 0,-158.64 z"
         id="path3498"
         inkscape:connector-curvature="0"
         style="clip-rule:evenodd" /></clipPath><clipPath
       clipPathUnits="userSpaceOnUse"
       id="clipPath3508"><path
         d="m 72.12,430.32 413.64,0 0,158.64 -413.64,0 0,-158.64 z"
         id="path3510"
         inkscape:connector-curvature="0"
         style="clip-rule:evenodd" /></clipPath><clipPath
       clipPathUnits="userSpaceOnUse"
       id="clipPath3520"><path
         d="m 72.12,430.32 413.64,0 0,158.64 -413.64,0 0,-158.64 z"
         id="path3522"
         inkscape:connector-curvature="0"
         style="clip-rule:evenodd" /></clipPath><clipPath
       clipPathUnits="userSpaceOnUse"
       id="clipPath3532"><path
         d="m 72.12,430.32 413.64,0 0,158.64 -413.64,0 0,-158.64 z"
         id="path3534"
         inkscape:connector-curvature="0"
         style="clip-rule:evenodd" /></clipPath><clipPath
       clipPathUnits="userSpaceOnUse"
       id="clipPath3544"><path
         d="m 72.12,430.32 413.64,0 0,158.64 -413.64,0 0,-158.64 z"
         id="path3546"
         inkscape:connector-curvature="0"
         style="clip-rule:evenodd" /></clipPath><clipPath
       clipPathUnits="userSpaceOnUse"
       id="clipPath3556"><path
         d="m 72.12,430.32 413.64,0 0,158.64 -413.64,0 0,-158.64 z"
         id="path3558"
         inkscape:connector-curvature="0"
         style="clip-rule:evenodd" /></clipPath><clipPath
       clipPathUnits="userSpaceOnUse"
       id="clipPath3568"><path
         d="m 72.12,430.32 413.64,0 0,158.64 -413.64,0 0,-158.64 z"
         id="path3570"
         inkscape:connector-curvature="0"
         style="clip-rule:evenodd" /></clipPath><clipPath
       clipPathUnits="userSpaceOnUse"
       id="clipPath3580"><path
         d="m 72.12,430.32 413.64,0 0,158.64 -413.64,0 0,-158.64 z"
         id="path3582"
         inkscape:connector-curvature="0"
         style="clip-rule:evenodd" /></clipPath><clipPath
       clipPathUnits="userSpaceOnUse"
       id="clipPath3592"><path
         d="m 72.12,430.32 413.64,0 0,158.64 -413.64,0 0,-158.64 z"
         id="path3594"
         inkscape:connector-curvature="0"
         style="clip-rule:evenodd" /></clipPath><clipPath
       clipPathUnits="userSpaceOnUse"
       id="clipPath3604"><path
         d="m 72.12,430.32 413.64,0 0,158.64 -413.64,0 0,-158.64 z"
         id="path3606"
         inkscape:connector-curvature="0"
         style="clip-rule:evenodd" /></clipPath><clipPath
       clipPathUnits="userSpaceOnUse"
       id="clipPath3616"><path
         d="m 72.12,430.32 413.64,0 0,158.64 -413.64,0 0,-158.64 z"
         id="path3618"
         inkscape:connector-curvature="0"
         style="clip-rule:evenodd" /></clipPath><clipPath
       clipPathUnits="userSpaceOnUse"
       id="clipPath3628"><path
         d="m 72.12,430.32 413.64,0 0,158.64 -413.64,0 0,-158.64 z"
         id="path3630"
         inkscape:connector-curvature="0"
         style="clip-rule:evenodd" /></clipPath><clipPath
       clipPathUnits="userSpaceOnUse"
       id="clipPath3640"><path
         d="m 72.12,430.32 413.64,0 0,158.64 -413.64,0 0,-158.64 z"
         id="path3642"
         inkscape:connector-curvature="0"
         style="clip-rule:evenodd" /></clipPath><clipPath
       clipPathUnits="userSpaceOnUse"
       id="clipPath3652"><path
         d="m 72.12,430.32 413.64,0 0,158.64 -413.64,0 0,-158.64 z"
         id="path3654"
         inkscape:connector-curvature="0"
         style="clip-rule:evenodd" /></clipPath><clipPath
       clipPathUnits="userSpaceOnUse"
       id="clipPath3670"><path
         d="m 72.12,430.32 413.64,0 0,158.64 -413.64,0 0,-158.64 z"
         id="path3672"
         inkscape:connector-curvature="0"
         style="clip-rule:evenodd" /></clipPath><clipPath
       clipPathUnits="userSpaceOnUse"
       id="clipPath3688"><path
         d="m 72.12,430.32 413.64,0 0,158.64 -413.64,0 0,-158.64 z"
         id="path3690"
         inkscape:connector-curvature="0"
         style="clip-rule:evenodd" /></clipPath><clipPath
       clipPathUnits="userSpaceOnUse"
       id="clipPath3800"><path
         d="m 73.8,607.92 414.72,0 0,159.72 -414.72,0 0,-159.72 z"
         id="path3802"
         inkscape:connector-curvature="0"
         style="clip-rule:evenodd" /></clipPath><clipPath
       clipPathUnits="userSpaceOnUse"
       id="clipPath3812"><path
         d="m 73.8,607.92 414.72,0 0,159.72 -414.72,0 0,-159.72 z"
         id="path3814"
         inkscape:connector-curvature="0"
         style="clip-rule:evenodd" /></clipPath><clipPath
       clipPathUnits="userSpaceOnUse"
       id="clipPath3824"><path
         d="m 73.8,607.92 414.72,0 0,159.72 -414.72,0 0,-159.72 z"
         id="path3826"
         inkscape:connector-curvature="0"
         style="clip-rule:evenodd" /></clipPath><clipPath
       clipPathUnits="userSpaceOnUse"
       id="clipPath3836"><path
         d="m 73.8,607.92 414.72,0 0,159.72 -414.72,0 0,-159.72 z"
         id="path3838"
         inkscape:connector-curvature="0"
         style="clip-rule:evenodd" /></clipPath><clipPath
       clipPathUnits="userSpaceOnUse"
       id="clipPath3848"><path
         d="m 73.8,607.92 414.72,0 0,159.72 -414.72,0 0,-159.72 z"
         id="path3850"
         inkscape:connector-curvature="0"
         style="clip-rule:evenodd" /></clipPath><clipPath
       clipPathUnits="userSpaceOnUse"
       id="clipPath3860"><path
         d="m 73.8,607.92 414.72,0 0,159.72 -414.72,0 0,-159.72 z"
         id="path3862"
         inkscape:connector-curvature="0"
         style="clip-rule:evenodd" /></clipPath><clipPath
       clipPathUnits="userSpaceOnUse"
       id="clipPath3872"><path
         d="m 73.8,607.92 414.72,0 0,159.72 -414.72,0 0,-159.72 z"
         id="path3874"
         inkscape:connector-curvature="0"
         style="clip-rule:evenodd" /></clipPath><clipPath
       clipPathUnits="userSpaceOnUse"
       id="clipPath3884"><path
         d="m 73.8,607.92 414.72,0 0,159.72 -414.72,0 0,-159.72 z"
         id="path3886"
         inkscape:connector-curvature="0"
         style="clip-rule:evenodd" /></clipPath><clipPath
       clipPathUnits="userSpaceOnUse"
       id="clipPath3896"><path
         d="m 73.8,607.92 414.72,0 0,159.72 -414.72,0 0,-159.72 z"
         id="path3898"
         inkscape:connector-curvature="0"
         style="clip-rule:evenodd" /></clipPath><clipPath
       clipPathUnits="userSpaceOnUse"
       id="clipPath3908"><path
         d="m 73.8,607.92 414.72,0 0,159.72 -414.72,0 0,-159.72 z"
         id="path3910"
         inkscape:connector-curvature="0"
         style="clip-rule:evenodd" /></clipPath><clipPath
       clipPathUnits="userSpaceOnUse"
       id="clipPath3920"><path
         d="m 73.8,607.92 414.72,0 0,159.72 -414.72,0 0,-159.72 z"
         id="path3922"
         inkscape:connector-curvature="0"
         style="clip-rule:evenodd" /></clipPath><clipPath
       clipPathUnits="userSpaceOnUse"
       id="clipPath3932"><path
         d="m 73.8,607.92 414.72,0 0,159.72 -414.72,0 0,-159.72 z"
         id="path3934"
         inkscape:connector-curvature="0"
         style="clip-rule:evenodd" /></clipPath><clipPath
       clipPathUnits="userSpaceOnUse"
       id="clipPath3944"><path
         d="m 73.8,607.92 414.72,0 0,159.72 -414.72,0 0,-159.72 z"
         id="path3946"
         inkscape:connector-curvature="0"
         style="clip-rule:evenodd" /></clipPath><clipPath
       clipPathUnits="userSpaceOnUse"
       id="clipPath3956"><path
         d="m 73.8,607.92 414.72,0 0,159.72 -414.72,0 0,-159.72 z"
         id="path3958"
         inkscape:connector-curvature="0"
         style="clip-rule:evenodd" /></clipPath><clipPath
       clipPathUnits="userSpaceOnUse"
       id="clipPath3968"><path
         d="m 73.8,607.92 414.72,0 0,159.72 -414.72,0 0,-159.72 z"
         id="path3970"
         inkscape:connector-curvature="0"
         style="clip-rule:evenodd" /></clipPath><clipPath
       clipPathUnits="userSpaceOnUse"
       id="clipPath3980"><path
         d="m 73.8,607.92 414.72,0 0,159.72 -414.72,0 0,-159.72 z"
         id="path3982"
         inkscape:connector-curvature="0"
         style="clip-rule:evenodd" /></clipPath><clipPath
       clipPathUnits="userSpaceOnUse"
       id="clipPath3992"><path
         d="m 73.8,607.92 414.72,0 0,159.72 -414.72,0 0,-159.72 z"
         id="path3994"
         inkscape:connector-curvature="0"
         style="clip-rule:evenodd" /></clipPath><clipPath
       clipPathUnits="userSpaceOnUse"
       id="clipPath4010"><path
         d="m 73.8,607.92 414.72,0 0,159.72 -414.72,0 0,-159.72 z"
         id="path4012"
         inkscape:connector-curvature="0"
         style="clip-rule:evenodd" /></clipPath><clipPath
       clipPathUnits="userSpaceOnUse"
       id="clipPath4028"><path
         d="m 73.8,607.92 414.72,0 0,159.72 -414.72,0 0,-159.72 z"
         id="path4030"
         inkscape:connector-curvature="0"
         style="clip-rule:evenodd" /></clipPath></defs><sodipodi:namedview
     pagecolor="#ffffff"
     bordercolor="#666666"
     borderopacity="1"
     objecttolerance="10"
     gridtolerance="10"
     guidetolerance="10"
     inkscape:pageopacity="0"
     inkscape:pageshadow="2"
     inkscape:window-width="1920"
     inkscape:window-height="1027"
     id="namedview3338"
     showgrid="false"
     inkscape:zoom="1.2685458"
     inkscape:cx="415.30141"
     inkscape:cy="218.10343"
     inkscape:window-x="-8"
     inkscape:window-y="-8"
     inkscape:window-maximized="1"
     inkscape:current-layer="g3344" /><g
     id="g3344"
     inkscape:groupmode="layer"
     inkscape:label="SearchAThing.Arduino.Utils.compareDPrint"
     transform="matrix(1.25,0,0,-1.25,0,200.58697)"><path
       d="m 0.375,0.37498047 414.83,0 0,159.71999953 -414.83,0 0,-159.71999953 z"
       style="fill:#ffffff;fill-opacity:1;fill-rule:evenodd;stroke:none"
       id="path3698"
       inkscape:connector-curvature="0" /><path
       d="m 33.465,89.77498 370.74,0 m -370.74,11.04 370.74,0 m -370.74,11.04 370.74,0 m -370.74,11.15 370.74,0"
       style="fill:none;stroke:#d9d9d9;stroke-width:0.75;stroke-linecap:butt;stroke-linejoin:round;stroke-miterlimit:10;stroke-dasharray:none;stroke-opacity:1"
       id="path3700"
       inkscape:connector-curvature="0" /><path
       d="m 33.465,78.62498 370.74,0"
       style="fill:none;stroke:#d9d9d9;stroke-width:0.75;stroke-linecap:butt;stroke-linejoin:round;stroke-miterlimit:10;stroke-dasharray:none;stroke-opacity:1"
       id="path3702"
       inkscape:connector-curvature="0" /><path
       d="m 50.315,97.39498 33.7,0 33.72,2.58 33.72,0 33.72,-0.12 33.6,-1.8 33.72,0.84 33.72,1.08 33.72,0 33.72,-0.12 33.7,19.05"
       style="fill:none;stroke:#5b9bd5;stroke-width:2.25;stroke-linecap:round;stroke-linejoin:round;stroke-miterlimit:10;stroke-dasharray:none;stroke-opacity:1"
       id="path3704"
       inkscape:connector-curvature="0" /><path
       d="m 52.815,97.45498 c 0,-1.39 -1.13,-2.52 -2.52,-2.52 -1.39,0 -2.52,1.13 -2.52,2.52 0,1.39 1.13,2.52 2.52,2.52 1.39,0 2.52,-1.13 2.52,-2.52 z"
       style="fill:#5b9bd5;fill-opacity:1;fill-rule:nonzero;stroke:none"
       id="path3706"
       inkscape:connector-curvature="0" /><path
       d="m 52.815,97.45498 c 0,-1.39 -1.13,-2.52 -2.52,-2.52 -1.39,0 -2.52,1.13 -2.52,2.52 0,1.39 1.13,2.52 2.52,2.52 1.39,0 2.52,-1.13 2.52,-2.52 z"
       style="fill:none;stroke:#5b9bd5;stroke-width:0.72000003;stroke-linecap:butt;stroke-linejoin:round;stroke-miterlimit:10;stroke-dasharray:none;stroke-opacity:1"
       id="path3708"
       inkscape:connector-curvature="0" /><path
       d="m 86.535,97.45498 c 0,-1.39 -1.13,-2.52 -2.52,-2.52 -1.39,0 -2.52,1.13 -2.52,2.52 0,1.39 1.13,2.52 2.52,2.52 1.39,0 2.52,-1.13 2.52,-2.52 z"
       style="fill:#5b9bd5;fill-opacity:1;fill-rule:nonzero;stroke:none"
       id="path3710"
       inkscape:connector-curvature="0" /><path
       d="m 86.535,97.45498 c 0,-1.39 -1.13,-2.52 -2.52,-2.52 -1.39,0 -2.52,1.13 -2.52,2.52 0,1.39 1.13,2.52 2.52,2.52 1.39,0 2.52,-1.13 2.52,-2.52 z"
       style="fill:none;stroke:#5b9bd5;stroke-width:0.72000003;stroke-linecap:butt;stroke-linejoin:round;stroke-miterlimit:10;stroke-dasharray:none;stroke-opacity:1"
       id="path3712"
       inkscape:connector-curvature="0" /><path
       d="m 120.255,99.97498 c 0,-1.39 -1.13,-2.52 -2.52,-2.52 -1.39,0 -2.52,1.13 -2.52,2.52 0,1.39 1.13,2.52 2.52,2.52 1.39,0 2.52,-1.13 2.52,-2.52 z"
       style="fill:#5b9bd5;fill-opacity:1;fill-rule:nonzero;stroke:none"
       id="path3714"
       inkscape:connector-curvature="0" /><path
       d="m 120.255,99.97498 c 0,-1.39 -1.13,-2.52 -2.52,-2.52 -1.39,0 -2.52,1.13 -2.52,2.52 0,1.39 1.13,2.52 2.52,2.52 1.39,0 2.52,-1.13 2.52,-2.52 z"
       style="fill:none;stroke:#5b9bd5;stroke-width:0.72000003;stroke-linecap:butt;stroke-linejoin:round;stroke-miterlimit:10;stroke-dasharray:none;stroke-opacity:1"
       id="path3716"
       inkscape:connector-curvature="0" /><path
       d="m 153.975,99.97498 c 0,-1.39 -1.13,-2.52 -2.52,-2.52 -1.39,0 -2.52,1.13 -2.52,2.52 0,1.39 1.13,2.52 2.52,2.52 1.39,0 2.52,-1.13 2.52,-2.52 z"
       style="fill:#5b9bd5;fill-opacity:1;fill-rule:nonzero;stroke:none"
       id="path3718"
       inkscape:connector-curvature="0" /><path
       d="m 153.975,99.97498 c 0,-1.39 -1.13,-2.52 -2.52,-2.52 -1.39,0 -2.52,1.13 -2.52,2.52 0,1.39 1.13,2.52 2.52,2.52 1.39,0 2.52,-1.13 2.52,-2.52 z"
       style="fill:none;stroke:#5b9bd5;stroke-width:0.72000003;stroke-linecap:butt;stroke-linejoin:round;stroke-miterlimit:10;stroke-dasharray:none;stroke-opacity:1"
       id="path3720"
       inkscape:connector-curvature="0" /><path
       d="m 187.695,99.85498 c 0,-1.39 -1.13,-2.52 -2.52,-2.52 -1.39,0 -2.52,1.13 -2.52,2.52 0,1.39 1.13,2.52 2.52,2.52 1.39,0 2.52,-1.13 2.52,-2.52 z"
       style="fill:#5b9bd5;fill-opacity:1;fill-rule:nonzero;stroke:none"
       id="path3722"
       inkscape:connector-curvature="0" /><path
       d="m 187.695,99.85498 c 0,-1.39 -1.13,-2.52 -2.52,-2.52 -1.39,0 -2.52,1.13 -2.52,2.52 0,1.39 1.13,2.52 2.52,2.52 1.39,0 2.52,-1.13 2.52,-2.52 z"
       style="fill:none;stroke:#5b9bd5;stroke-width:0.72000003;stroke-linecap:butt;stroke-linejoin:round;stroke-miterlimit:10;stroke-dasharray:none;stroke-opacity:1"
       id="path3724"
       inkscape:connector-curvature="0" /><path
       d="m 221.295,98.05498 c 0,-1.39 -1.13,-2.52 -2.52,-2.52 -1.39,0 -2.52,1.13 -2.52,2.52 0,1.39 1.13,2.52 2.52,2.52 1.39,0 2.52,-1.13 2.52,-2.52 z"
       style="fill:#5b9bd5;fill-opacity:1;fill-rule:nonzero;stroke:none"
       id="path3726"
       inkscape:connector-curvature="0" /><path
       d="m 221.295,98.05498 c 0,-1.39 -1.13,-2.52 -2.52,-2.52 -1.39,0 -2.52,1.13 -2.52,2.52 0,1.39 1.13,2.52 2.52,2.52 1.39,0 2.52,-1.13 2.52,-2.52 z"
       style="fill:none;stroke:#5b9bd5;stroke-width:0.72000003;stroke-linecap:butt;stroke-linejoin:round;stroke-miterlimit:10;stroke-dasharray:none;stroke-opacity:1"
       id="path3728"
       inkscape:connector-curvature="0" /><path
       d="m 255.015,98.89498 c 0,-1.39 -1.13,-2.52 -2.52,-2.52 -1.39,0 -2.52,1.13 -2.52,2.52 0,1.39 1.13,2.52 2.52,2.52 1.39,0 2.52,-1.13 2.52,-2.52 z"
       style="fill:#5b9bd5;fill-opacity:1;fill-rule:nonzero;stroke:none"
       id="path3730"
       inkscape:connector-curvature="0" /><path
       d="m 255.015,98.89498 c 0,-1.39 -1.13,-2.52 -2.52,-2.52 -1.39,0 -2.52,1.13 -2.52,2.52 0,1.39 1.13,2.52 2.52,2.52 1.39,0 2.52,-1.13 2.52,-2.52 z"
       style="fill:none;stroke:#5b9bd5;stroke-width:0.72000003;stroke-linecap:butt;stroke-linejoin:round;stroke-miterlimit:10;stroke-dasharray:none;stroke-opacity:1"
       id="path3732"
       inkscape:connector-curvature="0" /><path
       d="m 288.735,99.97498 c 0,-1.39 -1.13,-2.52 -2.52,-2.52 -1.39,0 -2.52,1.13 -2.52,2.52 0,1.39 1.13,2.52 2.52,2.52 1.39,0 2.52,-1.13 2.52,-2.52 z"
       style="fill:#5b9bd5;fill-opacity:1;fill-rule:nonzero;stroke:none"
       id="path3734"
       inkscape:connector-curvature="0" /><path
       d="m 288.735,99.97498 c 0,-1.39 -1.13,-2.52 -2.52,-2.52 -1.39,0 -2.52,1.13 -2.52,2.52 0,1.39 1.13,2.52 2.52,2.52 1.39,0 2.52,-1.13 2.52,-2.52 z"
       style="fill:none;stroke:#5b9bd5;stroke-width:0.72000003;stroke-linecap:butt;stroke-linejoin:round;stroke-miterlimit:10;stroke-dasharray:none;stroke-opacity:1"
       id="path3736"
       inkscape:connector-curvature="0" /><path
       d="m 322.455,99.97498 c 0,-1.39 -1.13,-2.52 -2.52,-2.52 -1.39,0 -2.52,1.13 -2.52,2.52 0,1.39 1.13,2.52 2.52,2.52 1.39,0 2.52,-1.13 2.52,-2.52 z"
       style="fill:#5b9bd5;fill-opacity:1;fill-rule:nonzero;stroke:none"
       id="path3738"
       inkscape:connector-curvature="0" /><path
       d="m 322.455,99.97498 c 0,-1.39 -1.13,-2.52 -2.52,-2.52 -1.39,0 -2.52,1.13 -2.52,2.52 0,1.39 1.13,2.52 2.52,2.52 1.39,0 2.52,-1.13 2.52,-2.52 z"
       style="fill:none;stroke:#5b9bd5;stroke-width:0.72000003;stroke-linecap:butt;stroke-linejoin:round;stroke-miterlimit:10;stroke-dasharray:none;stroke-opacity:1"
       id="path3740"
       inkscape:connector-curvature="0" /><path
       d="m 356.175,99.85498 c 0,-1.39 -1.13,-2.52 -2.52,-2.52 -1.39,0 -2.52,1.13 -2.52,2.52 0,1.39 1.13,2.52 2.52,2.52 1.39,0 2.52,-1.13 2.52,-2.52 z"
       style="fill:#5b9bd5;fill-opacity:1;fill-rule:nonzero;stroke:none"
       id="path3742"
       inkscape:connector-curvature="0" /><path
       d="m 356.175,99.85498 c 0,-1.39 -1.13,-2.52 -2.52,-2.52 -1.39,0 -2.52,1.13 -2.52,2.52 0,1.39 1.13,2.52 2.52,2.52 1.39,0 2.52,-1.13 2.52,-2.52 z"
       style="fill:none;stroke:#5b9bd5;stroke-width:0.72000003;stroke-linecap:butt;stroke-linejoin:round;stroke-miterlimit:10;stroke-dasharray:none;stroke-opacity:1"
       id="path3744"
       inkscape:connector-curvature="0" /><path
       d="m 389.895,118.93498 c 0,-1.39 -1.13,-2.52 -2.52,-2.52 -1.39,0 -2.52,1.13 -2.52,2.52 0,1.39 1.13,2.52 2.52,2.52 1.39,0 2.52,-1.13 2.52,-2.52 z"
       style="fill:#5b9bd5;fill-opacity:1;fill-rule:nonzero;stroke:none"
       id="path3746"
       inkscape:connector-curvature="0" /><path
       d="m 389.895,118.93498 c 0,-1.39 -1.13,-2.52 -2.52,-2.52 -1.39,0 -2.52,1.13 -2.52,2.52 0,1.39 1.13,2.52 2.52,2.52 1.39,0 2.52,-1.13 2.52,-2.52 z"
       style="fill:none;stroke:#5b9bd5;stroke-width:0.72000003;stroke-linecap:butt;stroke-linejoin:round;stroke-miterlimit:10;stroke-dasharray:none;stroke-opacity:1"
       id="path3748"
       inkscape:connector-curvature="0" /><path
       d="m 50.315,84.97498 33.7,-0.05 33.72,1.97 33.72,-0.24 33.72,0.24 33.6,-1.68 33.72,0 33.72,2.16 33.72,1.08 33.72,0.36 33.7,9.54"
       style="fill:none;stroke:#ed7d31;stroke-width:2.25;stroke-linecap:round;stroke-linejoin:round;stroke-miterlimit:10;stroke-dasharray:none;stroke-opacity:1"
       id="path3750"
       inkscape:connector-curvature="0" /><path
       d="m 52.815,84.97498 c 0,-1.39 -1.13,-2.52 -2.52,-2.52 -1.39,0 -2.52,1.13 -2.52,2.52 0,1.39 1.13,2.52 2.52,2.52 1.39,0 2.52,-1.13 2.52,-2.52 z"
       style="fill:#ed7d31;fill-opacity:1;fill-rule:nonzero;stroke:none"
       id="path3752"
       inkscape:connector-curvature="0" /><path
       d="m 52.815,84.97498 c 0,-1.39 -1.13,-2.52 -2.52,-2.52 -1.39,0 -2.52,1.13 -2.52,2.52 0,1.39 1.13,2.52 2.52,2.52 1.39,0 2.52,-1.13 2.52,-2.52 z"
       style="fill:none;stroke:#ed7d31;stroke-width:0.72000003;stroke-linecap:butt;stroke-linejoin:round;stroke-miterlimit:10;stroke-dasharray:none;stroke-opacity:1"
       id="path3754"
       inkscape:connector-curvature="0" /><path
       d="m 86.535,84.97498 c 0,-1.39 -1.13,-2.52 -2.52,-2.52 -1.39,0 -2.52,1.13 -2.52,2.52 0,1.39 1.13,2.52 2.52,2.52 1.39,0 2.52,-1.13 2.52,-2.52 z"
       style="fill:#ed7d31;fill-opacity:1;fill-rule:nonzero;stroke:none"
       id="path3756"
       inkscape:connector-curvature="0" /><path
       d="m 86.535,84.97498 c 0,-1.39 -1.13,-2.52 -2.52,-2.52 -1.39,0 -2.52,1.13 -2.52,2.52 0,1.39 1.13,2.52 2.52,2.52 1.39,0 2.52,-1.13 2.52,-2.52 z"
       style="fill:none;stroke:#ed7d31;stroke-width:0.72000003;stroke-linecap:butt;stroke-linejoin:round;stroke-miterlimit:10;stroke-dasharray:none;stroke-opacity:1"
       id="path3758"
       inkscape:connector-curvature="0" /><path
       d="m 120.255,86.89498 c 0,-1.39 -1.13,-2.52 -2.52,-2.52 -1.39,0 -2.52,1.13 -2.52,2.52 0,1.39 1.13,2.52 2.52,2.52 1.39,0 2.52,-1.13 2.52,-2.52 z"
       style="fill:#ed7d31;fill-opacity:1;fill-rule:nonzero;stroke:none"
       id="path3760"
       inkscape:connector-curvature="0" /><path
       d="m 120.255,86.89498 c 0,-1.39 -1.13,-2.52 -2.52,-2.52 -1.39,0 -2.52,1.13 -2.52,2.52 0,1.39 1.13,2.52 2.52,2.52 1.39,0 2.52,-1.13 2.52,-2.52 z"
       style="fill:none;stroke:#ed7d31;stroke-width:0.72000003;stroke-linecap:butt;stroke-linejoin:round;stroke-miterlimit:10;stroke-dasharray:none;stroke-opacity:1"
       id="path3762"
       inkscape:connector-curvature="0" /><path
       d="m 153.975,86.65498 c 0,-1.39 -1.13,-2.52 -2.52,-2.52 -1.39,0 -2.52,1.13 -2.52,2.52 0,1.39 1.13,2.52 2.52,2.52 1.39,0 2.52,-1.13 2.52,-2.52 z"
       style="fill:#ed7d31;fill-opacity:1;fill-rule:nonzero;stroke:none"
       id="path3764"
       inkscape:connector-curvature="0" /><path
       d="m 153.975,86.65498 c 0,-1.39 -1.13,-2.52 -2.52,-2.52 -1.39,0 -2.52,1.13 -2.52,2.52 0,1.39 1.13,2.52 2.52,2.52 1.39,0 2.52,-1.13 2.52,-2.52 z"
       style="fill:none;stroke:#ed7d31;stroke-width:0.72000003;stroke-linecap:butt;stroke-linejoin:round;stroke-miterlimit:10;stroke-dasharray:none;stroke-opacity:1"
       id="path3766"
       inkscape:connector-curvature="0" /><path
       d="m 187.695,86.89498 c 0,-1.39 -1.13,-2.52 -2.52,-2.52 -1.39,0 -2.52,1.13 -2.52,2.52 0,1.39 1.13,2.52 2.52,2.52 1.39,0 2.52,-1.13 2.52,-2.52 z"
       style="fill:#ed7d31;fill-opacity:1;fill-rule:nonzero;stroke:none"
       id="path3768"
       inkscape:connector-curvature="0" /><path
       d="m 187.695,86.89498 c 0,-1.39 -1.13,-2.52 -2.52,-2.52 -1.39,0 -2.52,1.13 -2.52,2.52 0,1.39 1.13,2.52 2.52,2.52 1.39,0 2.52,-1.13 2.52,-2.52 z"
       style="fill:none;stroke:#ed7d31;stroke-width:0.72000003;stroke-linecap:butt;stroke-linejoin:round;stroke-miterlimit:10;stroke-dasharray:none;stroke-opacity:1"
       id="path3770"
       inkscape:connector-curvature="0" /><path
       d="m 221.295,85.21498 c 0,-1.39 -1.13,-2.52 -2.52,-2.52 -1.39,0 -2.52,1.13 -2.52,2.52 0,1.39 1.13,2.52 2.52,2.52 1.39,0 2.52,-1.13 2.52,-2.52 z"
       style="fill:#ed7d31;fill-opacity:1;fill-rule:nonzero;stroke:none"
       id="path3772"
       inkscape:connector-curvature="0" /><path
       d="m 221.295,85.21498 c 0,-1.39 -1.13,-2.52 -2.52,-2.52 -1.39,0 -2.52,1.13 -2.52,2.52 0,1.39 1.13,2.52 2.52,2.52 1.39,0 2.52,-1.13 2.52,-2.52 z"
       style="fill:none;stroke:#ed7d31;stroke-width:0.72000003;stroke-linecap:butt;stroke-linejoin:round;stroke-miterlimit:10;stroke-dasharray:none;stroke-opacity:1"
       id="path3774"
       inkscape:connector-curvature="0" /><path
       d="m 255.015,85.21498 c 0,-1.39 -1.13,-2.52 -2.52,-2.52 -1.39,0 -2.52,1.13 -2.52,2.52 0,1.39 1.13,2.52 2.52,2.52 1.39,0 2.52,-1.13 2.52,-2.52 z"
       style="fill:#ed7d31;fill-opacity:1;fill-rule:nonzero;stroke:none"
       id="path3776"
       inkscape:connector-curvature="0" /><path
       d="m 255.015,85.21498 c 0,-1.39 -1.13,-2.52 -2.52,-2.52 -1.39,0 -2.52,1.13 -2.52,2.52 0,1.39 1.13,2.52 2.52,2.52 1.39,0 2.52,-1.13 2.52,-2.52 z"
       style="fill:none;stroke:#ed7d31;stroke-width:0.72000003;stroke-linecap:butt;stroke-linejoin:round;stroke-miterlimit:10;stroke-dasharray:none;stroke-opacity:1"
       id="path3778"
       inkscape:connector-curvature="0" /><path
       d="m 288.735,87.37498 c 0,-1.39 -1.13,-2.52 -2.52,-2.52 -1.39,0 -2.52,1.13 -2.52,2.52 0,1.39 1.13,2.52 2.52,2.52 1.39,0 2.52,-1.13 2.52,-2.52 z"
       style="fill:#ed7d31;fill-opacity:1;fill-rule:nonzero;stroke:none"
       id="path3780"
       inkscape:connector-curvature="0" /><path
       d="m 288.735,87.37498 c 0,-1.39 -1.13,-2.52 -2.52,-2.52 -1.39,0 -2.52,1.13 -2.52,2.52 0,1.39 1.13,2.52 2.52,2.52 1.39,0 2.52,-1.13 2.52,-2.52 z"
       style="fill:none;stroke:#ed7d31;stroke-width:0.72000003;stroke-linecap:butt;stroke-linejoin:round;stroke-miterlimit:10;stroke-dasharray:none;stroke-opacity:1"
       id="path3782"
       inkscape:connector-curvature="0" /><path
       d="m 322.455,88.45498 c 0,-1.39 -1.13,-2.52 -2.52,-2.52 -1.39,0 -2.52,1.13 -2.52,2.52 0,1.39 1.13,2.52 2.52,2.52 1.39,0 2.52,-1.13 2.52,-2.52 z"
       style="fill:#ed7d31;fill-opacity:1;fill-rule:nonzero;stroke:none"
       id="path3784"
       inkscape:connector-curvature="0" /><path
       d="m 322.455,88.45498 c 0,-1.39 -1.13,-2.52 -2.52,-2.52 -1.39,0 -2.52,1.13 -2.52,2.52 0,1.39 1.13,2.52 2.52,2.52 1.39,0 2.52,-1.13 2.52,-2.52 z"
       style="fill:none;stroke:#ed7d31;stroke-width:0.72000003;stroke-linecap:butt;stroke-linejoin:round;stroke-miterlimit:10;stroke-dasharray:none;stroke-opacity:1"
       id="path3786"
       inkscape:connector-curvature="0" /><path
       d="m 356.175,88.81498 c 0,-1.39 -1.13,-2.52 -2.52,-2.52 -1.39,0 -2.52,1.13 -2.52,2.52 0,1.39 1.13,2.52 2.52,2.52 1.39,0 2.52,-1.13 2.52,-2.52 z"
       style="fill:#ed7d31;fill-opacity:1;fill-rule:nonzero;stroke:none"
       id="path3788"
       inkscape:connector-curvature="0" /><path
       d="m 356.175,88.81498 c 0,-1.39 -1.13,-2.52 -2.52,-2.52 -1.39,0 -2.52,1.13 -2.52,2.52 0,1.39 1.13,2.52 2.52,2.52 1.39,0 2.52,-1.13 2.52,-2.52 z"
       style="fill:none;stroke:#ed7d31;stroke-width:0.72000003;stroke-linecap:butt;stroke-linejoin:round;stroke-miterlimit:10;stroke-dasharray:none;stroke-opacity:1"
       id="path3790"
       inkscape:connector-curvature="0" /><path
       d="m 389.895,98.29498 c 0,-1.39 -1.13,-2.52 -2.52,-2.52 -1.39,0 -2.52,1.13 -2.52,2.52 0,1.39 1.13,2.52 2.52,2.52 1.39,0 2.52,-1.13 2.52,-2.52 z"
       style="fill:#ed7d31;fill-opacity:1;fill-rule:nonzero;stroke:none"
       id="path3792"
       inkscape:connector-curvature="0" /><path
       d="m 389.895,98.29498 c 0,-1.39 -1.13,-2.52 -2.52,-2.52 -1.39,0 -2.52,1.13 -2.52,2.52 0,1.39 1.13,2.52 2.52,2.52 1.39,0 2.52,-1.13 2.52,-2.52 z"
       style="fill:none;stroke:#ed7d31;stroke-width:0.72000003;stroke-linecap:butt;stroke-linejoin:round;stroke-miterlimit:10;stroke-dasharray:none;stroke-opacity:1"
       id="path3794"
       inkscape:connector-curvature="0" /><g
       id="g3796"
       transform="translate(-73.425,-607.54502)"><g
         id="g3798"
         clip-path="url(#clipPath3800)"><text
           transform="matrix(1,0,0,-1,94.008,683.62)"
           style="font-variant:normal;font-weight:normal;font-size:9px;font-family:Calibri;-inkscape-font-specification:Calibri;writing-mode:lr-tb;fill:#595959;fill-opacity:1;fill-rule:nonzero;stroke:none"
           id="text3804"><tspan
             x="0"
             y="0"
             id="tspan3806">0</tspan></text>
</g></g><g
       id="g3808"
       transform="translate(-73.425,-607.54502)"><g
         id="g3810"
         clip-path="url(#clipPath3812)"><text
           transform="matrix(1,0,0,-1,80.328,694.7)"
           style="font-variant:normal;font-weight:normal;font-size:9px;font-family:Calibri;-inkscape-font-specification:Calibri;writing-mode:lr-tb;fill:#595959;fill-opacity:1;fill-rule:nonzero;stroke:none"
           id="text3816"><tspan
             x="0 4.5599999 9.1199999 13.68"
             y="0"
             sodipodi:role="line"
             id="tspan3818">1000</tspan></text>
</g></g><g
       id="g3820"
       transform="translate(-73.425,-607.54502)"><g
         id="g3822"
         clip-path="url(#clipPath3824)"><text
           transform="matrix(1,0,0,-1,80.328,705.82)"
           style="font-variant:normal;font-weight:normal;font-size:9px;font-family:Calibri;-inkscape-font-specification:Calibri;writing-mode:lr-tb;fill:#595959;fill-opacity:1;fill-rule:nonzero;stroke:none"
           id="text3828"><tspan
             x="0 4.5599999 9.1199999 13.68"
             y="0"
             sodipodi:role="line"
             id="tspan3830">2000</tspan></text>
</g></g><g
       id="g3832"
       transform="translate(-73.425,-607.54502)"><g
         id="g3834"
         clip-path="url(#clipPath3836)"><text
           transform="matrix(1,0,0,-1,80.328,716.9)"
           style="font-variant:normal;font-weight:normal;font-size:9px;font-family:Calibri;-inkscape-font-specification:Calibri;writing-mode:lr-tb;fill:#595959;fill-opacity:1;fill-rule:nonzero;stroke:none"
           id="text3840"><tspan
             x="0 4.5599999 9.1199999 13.68"
             y="0"
             sodipodi:role="line"
             id="tspan3842">3000</tspan></text>
</g></g><g
       id="g3844"
       transform="translate(-73.425,-607.54502)"><g
         id="g3846"
         clip-path="url(#clipPath3848)"><text
           transform="matrix(1,0,0,-1,80.328,727.99)"
           style="font-variant:normal;font-weight:normal;font-size:9px;font-family:Calibri;-inkscape-font-specification:Calibri;writing-mode:lr-tb;fill:#595959;fill-opacity:1;fill-rule:nonzero;stroke:none"
           id="text3852"><tspan
             x="0 4.5599999 9.1199999 13.68"
             y="0"
             sodipodi:role="line"
             id="tspan3854">4000</tspan></text>
</g></g><g
       id="g3856"
       transform="translate(-73.425,-607.54502)"><g
         id="g3858"
         clip-path="url(#clipPath3860)"><text
           transform="matrix(-4.4e-8,-1,-1,4.4e-8,120.74,680.45)"
           style="font-variant:normal;font-weight:normal;font-size:9px;font-family:Calibri;-inkscape-font-specification:Calibri;writing-mode:lr-tb;fill:#595959;fill-opacity:1;fill-rule:nonzero;stroke:none"
           id="text3864"><tspan
             x="0 5.7600002 10.314 16.677 18.827999 20.871 25.551001"
             y="0"
             sodipodi:role="line"
             id="tspan3866">Newline</tspan></text>
</g></g><g
       id="g3868"
       transform="translate(-73.425,-607.54502)"><g
         id="g3870"
         clip-path="url(#clipPath3872)"><text
           transform="matrix(-4.4e-8,-1,-1,4.4e-8,154.44,680.45)"
           style="font-variant:normal;font-weight:normal;font-size:9px;font-family:Calibri;-inkscape-font-specification:Calibri;writing-mode:lr-tb;fill:#595959;fill-opacity:1;fill-rule:nonzero;stroke:none"
           id="text3876"><tspan
             x="0 4.7969999 9.4770002 13.788"
             y="0"
             sodipodi:role="line"
             id="tspan3878">Char</tspan></text>
</g></g><g
       id="g3880"
       transform="translate(-73.425,-607.54502)"><g
         id="g3882"
         clip-path="url(#clipPath3884)"><text
           transform="matrix(-4.4e-8,-1,-1,4.4e-8,188.16,680.45)"
           style="font-variant:normal;font-weight:normal;font-size:9px;font-family:Calibri;-inkscape-font-specification:Calibri;writing-mode:lr-tb;fill:#595959;fill-opacity:1;fill-rule:nonzero;stroke:none"
           id="text3888"><tspan
             x="0 4.8959999 8.9729996 11.988"
             y="0"
             sodipodi:role="line"
             id="tspan3890">Byte</tspan></text>
</g></g><g
       id="g3892"
       transform="translate(-73.425,-607.54502)"><g
         id="g3894"
         clip-path="url(#clipPath3896)"><text
           transform="matrix(-4.4e-8,-1,-1,4.4e-8,221.86,680.45)"
           style="font-variant:normal;font-weight:normal;font-size:9px;font-family:Calibri;-inkscape-font-specification:Calibri;writing-mode:lr-tb;fill:#595959;fill-opacity:1;fill-rule:nonzero;stroke:none"
           id="text3900"><tspan
             x="0 5.7779999 10.548 13.563 18.125999"
             y="0"
             sodipodi:role="line"
             id="tspan3902">Unt16</tspan></text>
</g></g><g
       id="g3904"
       transform="translate(-73.425,-607.54502)"><g
         id="g3906"
         clip-path="url(#clipPath3908)"><text
           transform="matrix(-4.4e-8,-1,-1,4.4e-8,255.58,680.45)"
           style="font-variant:normal;font-weight:normal;font-size:9px;font-family:Calibri;-inkscape-font-specification:Calibri;writing-mode:lr-tb;fill:#595959;fill-opacity:1;fill-rule:nonzero;stroke:none"
           id="text3912"><tspan
             x="0 5.7779999 7.803 12.591 15.606 20.169001"
             y="0"
             sodipodi:role="line"
             id="tspan3914">Uint32</tspan></text>
</g></g><g
       id="g3916"
       transform="translate(-73.425,-607.54502)"><g
         id="g3918"
         clip-path="url(#clipPath3920)"><text
           transform="matrix(-4.4e-8,-1,-1,4.4e-8,289.3,680.45)"
           style="font-variant:normal;font-weight:normal;font-size:9px;font-family:Calibri;-inkscape-font-specification:Calibri;writing-mode:lr-tb;fill:#595959;fill-opacity:1;fill-rule:nonzero;stroke:none"
           id="text3924"><tspan
             x="0 4.0770001 8.6309996 12.114 15.129"
             y="0"
             sodipodi:role="line"
             id="tspan3926">F_str</tspan></text>
</g></g><g
       id="g3928"
       transform="translate(-73.425,-607.54502)"><g
         id="g3930"
         clip-path="url(#clipPath3932)"><text
           transform="matrix(-4.4e-8,-1,-1,4.4e-8,322.99,680.45)"
           style="font-variant:normal;font-weight:normal;font-size:9px;font-family:Calibri;-inkscape-font-specification:Calibri;writing-mode:lr-tb;fill:#595959;fill-opacity:1;fill-rule:nonzero;stroke:none"
           id="text3936"><tspan
             x="0 4.0770001 7.191"
             y="0"
             sodipodi:role="line"
             id="tspan3938">Str</tspan></text>
</g></g><g
       id="g3940"
       transform="translate(-73.425,-607.54502)"><g
         id="g3942"
         clip-path="url(#clipPath3944)"><text
           transform="matrix(-4.4e-8,-1,-1,4.4e-8,356.71,680.45)"
           style="font-variant:normal;font-weight:normal;font-size:9px;font-family:Calibri;-inkscape-font-specification:Calibri;writing-mode:lr-tb;fill:#595959;fill-opacity:1;fill-rule:nonzero;stroke:none"
           id="text3948"><tspan
             x="0 5.6339998 10.071 14.022 16.785 21.465 25.542 28.556999 32.985001"
             y="0"
             sodipodi:role="line"
             id="tspan3950">Hex[byte]</tspan></text>
</g></g><g
       id="g3952"
       transform="translate(-73.425,-607.54502)"><g
         id="g3954"
         clip-path="url(#clipPath3956)"><text
           transform="matrix(-4.4e-8,-1,-1,4.4e-8,390.41,680.45)"
           style="font-variant:normal;font-weight:normal;font-size:9px;font-family:Calibri;-inkscape-font-specification:Calibri;writing-mode:lr-tb;fill:#595959;fill-opacity:1;fill-rule:nonzero;stroke:none"
           id="text3960"><tspan
             x="0 5.6339998 10.071 14.022 16.785 21.465 23.507999 28.296 31.311001 35.874001 40.437"
             y="0"
             sodipodi:role="line"
             id="tspan3962">Hex[uint16]</tspan></text>
</g></g><g
       id="g3964"
       transform="translate(-73.425,-607.54502)"><g
         id="g3966"
         clip-path="url(#clipPath3968)"><text
           transform="matrix(-4.4e-8,-1,-1,4.4e-8,424.13,680.45)"
           style="font-variant:normal;font-weight:normal;font-size:9px;font-family:Calibri;-inkscape-font-specification:Calibri;writing-mode:lr-tb;fill:#595959;fill-opacity:1;fill-rule:nonzero;stroke:none"
           id="text3972"><tspan
             x="0 5.6339998 10.071 14.022 16.785 21.465 23.507999 28.296 31.311001 35.874001 40.437"
             y="0"
             sodipodi:role="line"
             id="tspan3974">Hex[uint32]</tspan></text>
</g></g><g
       id="g3976"
       transform="translate(-73.425,-607.54502)"><g
         id="g3978"
         clip-path="url(#clipPath3980)"><text
           transform="matrix(-4.4e-8,-1,-1,4.4e-8,457.85,680.45)"
           style="font-variant:normal;font-weight:normal;font-size:9px;font-family:Calibri;-inkscape-font-specification:Calibri;writing-mode:lr-tb;fill:#595959;fill-opacity:1;fill-rule:nonzero;stroke:none"
           id="text3984"><tspan
             x="0 4.0770001 6.2280002 10.908 15.219"
             y="0"
             sodipodi:role="line"
             id="tspan3986">Float</tspan></text>
</g></g><g
       id="g3988"
       transform="translate(-73.425,-607.54502)"><g
         id="g3990"
         clip-path="url(#clipPath3992)"><text
           transform="matrix(1,0,0,-1,248.52,746.81)"
           style="font-variant:normal;font-weight:normal;font-size:14.03999996px;font-family:Calibri;-inkscape-font-specification:Calibri;writing-mode:lr-tb;fill:#595959;fill-opacity:1;fill-rule:nonzero;stroke:none"
           id="text3996"><tspan
             x="0 6.4443598 9.7016401 16.4268 21.916439 29.287439 32.37624 39.691078 45.180721 51.90588 58.406399"
             y="0"
             sodipodi:role="line"
             id="tspan3998">Flash usage</tspan></text>
</g></g><path
       d="m 151.545,14.81498 19.2,0"
       style="fill:none;stroke:#5b9bd5;stroke-width:2.25;stroke-linecap:round;stroke-linejoin:round;stroke-miterlimit:10;stroke-dasharray:none;stroke-opacity:1"
       id="path4000"
       inkscape:connector-curvature="0" /><path
       d="m 163.575,14.89498 c 0,-1.39 -1.13,-2.52 -2.52,-2.52 -1.39,0 -2.52,1.13 -2.52,2.52 0,1.39 1.13,2.52 2.52,2.52 1.39,0 2.52,-1.13 2.52,-2.52 z"
       style="fill:#5b9bd5;fill-opacity:1;fill-rule:nonzero;stroke:none"
       id="path4002"
       inkscape:connector-curvature="0" /><path
       d="m 163.575,14.89498 c 0,-1.39 -1.13,-2.52 -2.52,-2.52 -1.39,0 -2.52,1.13 -2.52,2.52 0,1.39 1.13,2.52 2.52,2.52 1.39,0 2.52,-1.13 2.52,-2.52 z"
       style="fill:none;stroke:#5b9bd5;stroke-width:0.75;stroke-linecap:butt;stroke-linejoin:round;stroke-miterlimit:10;stroke-dasharray:none;stroke-opacity:1"
       id="path4004"
       inkscape:connector-curvature="0" /><g
       id="g4006"
       transform="translate(-73.425,-607.54502)"><g
         id="g4008"
         clip-path="url(#clipPath4010)"><text
           transform="matrix(1,0,0,-1,246.24,619.8)"
           style="font-variant:normal;font-weight:normal;font-size:9px;font-family:Calibri;-inkscape-font-specification:Calibri;writing-mode:lr-tb;fill:#595959;fill-opacity:1;fill-rule:nonzero;stroke:none"
           id="text4014"><tspan
             x="0 4.0770001 8.6309996 11.772 13.788 18.099001 20.169001 22.437 27.216 30.357 32.373001 37.053001"
             y="0"
             sodipodi:role="line"
             id="tspan4016">Serial.print</tspan></text>
</g></g><path
       d="m 223.115,14.81498 19.2,0"
       style="fill:none;stroke:#ed7d31;stroke-width:2.25;stroke-linecap:round;stroke-linejoin:round;stroke-miterlimit:10;stroke-dasharray:none;stroke-opacity:1"
       id="path4018"
       inkscape:connector-curvature="0" /><path
       d="m 235.215,14.89498 c 0,-1.39 -1.13,-2.52 -2.52,-2.52 -1.39,0 -2.52,1.13 -2.52,2.52 0,1.39 1.13,2.52 2.52,2.52 1.39,0 2.52,-1.13 2.52,-2.52 z"
       style="fill:#ed7d31;fill-opacity:1;fill-rule:nonzero;stroke:none"
       id="path4020"
       inkscape:connector-curvature="0" /><path
       d="m 235.215,14.89498 c 0,-1.39 -1.13,-2.52 -2.52,-2.52 -1.39,0 -2.52,1.13 -2.52,2.52 0,1.39 1.13,2.52 2.52,2.52 1.39,0 2.52,-1.13 2.52,-2.52 z"
       style="fill:none;stroke:#ed7d31;stroke-width:0.75;stroke-linecap:butt;stroke-linejoin:round;stroke-miterlimit:10;stroke-dasharray:none;stroke-opacity:1"
       id="path4022"
       inkscape:connector-curvature="0" /><g
       id="g4024"
       transform="translate(-73.425,-607.54502)"><g
         id="g4026"
         clip-path="url(#clipPath4028)"><text
           transform="matrix(1,0,0,-1,317.83,619.8)"
           style="font-variant:normal;font-weight:normal;font-size:9px;font-family:Calibri;-inkscape-font-specification:Calibri;writing-mode:lr-tb;fill:#595959;fill-opacity:1;fill-rule:nonzero;stroke:none"
           id="text4032"><tspan
             x="0 5.5349998 10.314 13.455 15.471 20.150999"
             y="0"
             sodipodi:role="line"
             id="tspan4034">Dprint</tspan></text>
</g></g><path
       d="m 0.375,0.37498047 414.83,0 0,159.71999953 -414.83,0 0,-159.71999953 z"
       style="fill:none;stroke:#d9d9d9;stroke-width:0.75;stroke-linecap:butt;stroke-linejoin:round;stroke-miterlimit:10;stroke-dasharray:none;stroke-opacity:1"
       id="path4036"
       inkscape:connector-curvature="0" /></g></svg>